<?xml version="1.0" encoding="UTF-8"?> <!-- Generator: Adobe Illustrator 21.0.2, SVG Export Plug-In . SVG Version: 6.00 Build 0) --> <svg xmlns="http://www.w3.org/2000/svg" xmlns:xlink="http://www.w3.org/1999/xlink" id="Illustration" x="0px" y="0px" viewBox="0 0 777 543.2" style="enable-background:new 0 0 777 543.2;" xml:space="preserve"> <style type="text/css"> .st0{fill:#00A6D2;} .st1{fill:#0099BC;} .st2{fill:#FFFFFF;} .st3{fill:url(#SVGID_1_);} .st4{fill:#DFE1E8;} .st5{fill:#EEF0F7;} .st6{fill:#3C4145;} .st7{fill:#EEA886;} .st8{fill:#E55353;} .st9{fill:#A77860;} .st10{fill:#BD4444;} .st11{fill:#323657;} .st12{fill:#706865;} .st13{fill:#B59074;} .st14{fill:#918783;} .st15{fill:#1D3B54;} .st16{fill:#CF8C6C;} .st17{fill:#EB4747;} .st18{fill:#DB9C7C;} .st19{fill:#152C3D;} .st20{fill:#EDDAD3;} .st21{fill:#BFB2AC;} .st22{fill:#D9C7C1;} .st23{fill:#EEA987;} .st24{fill:#E8734D;} .st25{fill:#C78D71;} .st26{fill:#5073AB;} .st27{fill:#F5F7FF;} .st28{fill:#1A598C;} .st29{fill:#F3F3F3;} .st30{fill:#1D2033;} .st31{fill:#50558A;} .st32{fill:#292C47;} .st33{fill:#3A4066;} .st34{fill:#E2D2CA;} .st35{fill:#CCBDB7;} .st36{fill:#035572;} .st37{fill:#FDD247;} .st38{fill:#424773;} .st39{fill:#3A3F47;} .st40{fill:#5E5854;} .st41{fill:#01405C;} .st42{fill:#CECFD6;} .st43{fill:#5C5552;} .st44{fill:#949494;} </style> <g> <g> <g> <path class="st0" d="M649.5,76.7c-1-4-2.6-7.9-4.7-11.4l4.8-7.2l-6.7-6.7l-6.7-6.7l-7.2,4.8c-3.5-2.1-7.3-3.7-11.4-4.7l-1.7-8.5 h-9.4h-9.4l-1.7,8.5c-4,1-7.9,2.6-11.4,4.7l-7.2-4.8l-6.7,6.7l-6.7,6.7l4.8,7.2c-2.1,3.5-3.7,7.3-4.7,11.4l-8.5,1.7v9.4v9.4 l8.5,1.7c1,4,2.6,7.9,4.7,11.4l-4.8,7.2l6.7,6.7l6.7,6.7l7.2-4.8c3.5,2.1,7.3,3.7,11.4,4.7l1.7,8.5h9.4h9.4l1.7-8.5 c4-1,7.9-2.6,11.4-4.7l7.2,4.8l6.7-6.7l6.7-6.7l-4.8-7.2c2.1-3.5,3.7-7.3,4.7-11.4l8.5-1.7v-9.4v-9.4L649.5,76.7z M606.5,120.9 c-18.2,0-33-14.8-33-33c0-18.2,14.8-33,33-33c18.2,0,33,14.8,33,33C639.5,106.1,624.8,120.9,606.5,120.9z"></path> </g> <g> <path class="st0" d="M662.3,156.8c-0.5-1.9-1.2-3.6-2.2-5.2l2.2-3.3l-3.1-3.1l-3.1-3.1l-3.3,2.2c-1.6-0.9-3.4-1.7-5.2-2.2 l-0.8-3.9h-4.3h-4.3l-0.8,3.9c-1.9,0.5-3.6,1.2-5.2,2.2l-3.3-2.2l-3.1,3.1l-3.1,3.1l2.2,3.3c-0.9,1.6-1.7,3.4-2.2,5.2l-3.9,0.8 v4.3v4.3l3.9,0.8c0.5,1.9,1.2,3.6,2.2,5.2l-2.2,3.3l3.1,3.1l3.1,3.1l3.3-2.2c1.6,0.9,3.4,1.7,5.2,2.2l0.8,3.9h4.3h4.3l0.8-3.9 c1.9-0.5,3.6-1.2,5.2-2.2l3.3,2.2l3.1-3.1l3.1-3.1l-2.2-3.3c0.9-1.6,1.7-3.4,2.2-5.2l3.9-0.8v-4.3v-4.3L662.3,156.8z M642.6,177.1c-8.4,0-15.1-6.8-15.1-15.1c0-8.4,6.8-15.1,15.1-15.1c8.4,0,15.1,6.8,15.1,15.1C657.8,170.3,651,177.1,642.6,177.1z "></path> </g> <g> <rect x="388.6" y="316.2" transform="matrix(-1 -1.224647e-16 1.224647e-16 -1 823.5118 773.2068)" class="st0" width="46.3" height="140.8"></rect> </g> <g> <path class="st1" d="M227.6,384h368.2c8.8,0,16-7.2,16-16V117.7c0-8.8-7.2-16-16-16H227.6c-8.8,0-16,7.2-16,16V368 C211.7,376.9,218.8,384,227.6,384z"></path> </g> <g> <rect x="227.3" y="71.7" transform="matrix(-1 -1.224647e-16 1.224647e-16 -1 823.5119 411.4434)" class="st2" width="368.9" height="268.1"></rect> </g> <g> <linearGradient id="SVGID_1_" gradientUnits="userSpaceOnUse" x1="227.3284" y1="87.8503" x2="596.1835" y2="87.8503"> <stop offset="0" style="stop-color:#40D5E6"></stop> <stop offset="1" style="stop-color:#00A6D2"></stop> </linearGradient> <polygon class="st3" points="227.3,104 596.2,104 596.2,71.7 227.3,71.7 "></polygon> </g> <g> <circle class="st0" cx="411.8" cy="360" r="12.9"></circle> </g> <g> <g> <g> <path class="st4" d="M350.9,136.7H463c1.9,0,3.5-1.6,3.5-3.5v-2.6c0-1.9-1.6-3.5-3.5-3.5H350.9c-1.9,0-3.5,1.6-3.5,3.5v2.6 C347.3,135.1,348.9,136.7,350.9,136.7z"></path> </g> </g> </g> <g> <g> <g> <path class="st4" d="M350.9,154H463c1.9,0,3.5-1.6,3.5-3.5v-2.6c0-1.9-1.6-3.5-3.5-3.5H350.9c-1.9,0-3.5,1.6-3.5,3.5v2.6 C347.3,152.4,348.9,154,350.9,154z"></path> </g> </g> </g> <g> <g> <g> <path class="st4" d="M350.9,171.3H463c1.9,0,3.5-1.6,3.5-3.5v-2.6c0-1.9-1.6-3.5-3.5-3.5H350.9c-1.9,0-3.5,1.6-3.5,3.5v2.6 C347.3,169.7,348.9,171.3,350.9,171.3z"></path> </g> </g> </g> <g> <g> <g> <g> <path class="st4" d="M403.6,320.9H265.3c-11.5,0-20.9-9.4-20.9-20.9v-84.1c0-11.5,9.4-20.9,20.9-20.9h138.3 c11.5,0,20.9,9.4,20.9,20.9V300C424.5,311.5,415.1,320.9,403.6,320.9z M265.3,197.6c-10.1,0-18.3,8.2-18.3,18.3V300 c0,10.1,8.2,18.3,18.3,18.3h138.3c10.1,0,18.3-8.2,18.3-18.3v-84.1c0-10.1-8.2-18.3-18.3-18.3H265.3z"></path> </g> </g> </g> </g> <g> <g> <g> <path class="st4" d="M274.3,226.7h120.4c4,0,7.3-3.2,7.3-7.3v-5.7c0-4-3.2-7.3-7.3-7.3H274.3c-4,0-7.3,3.2-7.3,7.3v5.7 C267,223.4,270.3,226.7,274.3,226.7z"></path> </g> </g> </g> <rect x="307.5" y="451.7" class="st1" width="208.5" height="10.6"></rect> <g> <path class="st5" d="M554.7,222.6c0,11-6,20.7-14.9,25.9c-1.8,1-3.7,1.9-5.7,2.6c-0.2,0.1-0.4,0.1-0.5,0.2 c-2.8,0.9-5.8,1.3-8.9,1.3c-4.8,0-9.3-1.1-13.3-3.1c-9.9-4.9-16.7-15.1-16.7-26.9c0-16.6,13.4-30,30-30 C541.3,192.6,554.7,206.1,554.7,222.6z"></path> <g> <path class="st6" d="M517.5,219.5c0,0-2-13.3,8.9-13c11,0.2,10.8,6.8,10.6,13.3c-0.2,6.5-4.4,6,0.3,15.1 c4.7,9.1-4.1,9.1-4.1,9.1l-6.9-9.4L517.5,219.5z"></path> </g> <g> <path class="st7" d="M525.3,207.7c0,0-7.4,1.2-7.7,11.7c-0.3,10.6,2,12.8,8.5,10.6c6.5-2.2,8.6-13.3,8.7-15 C534.9,213.4,535.3,206.4,525.3,207.7z"></path> </g> <g> <path class="st8" d="M538.3,244.5c0,3.2-1.7,5.3-4.2,6.6c-0.2,0.1-0.4,0.1-0.5,0.2c-2.8,0.9-5.8,1.3-8.9,1.3 c-4.8,0-9.3-1.1-13.3-3.1c-0.9-1.8,0.4-4.4,3.1-8.3c1.8-2.7,3.6-5.5,6.7-6.8c4.5-0.7,9.3-0.8,12.7,1.1 C536.5,237.1,538.3,239.8,538.3,244.5z"></path> </g> <g> <path class="st8" d="M515.9,241.1l-3.4,5.4c0,0,0.2-0.8,0.6-3.2c0.1-0.4,0.2-1,0.2-1.5c0-0.2,0.1-0.3,0.1-0.5v0 c1.5-3.4,6-5.9,6.2-6L515.9,241.1z"></path> </g> <g> <path class="st7" d="M539.8,248.5c-1.8,1-3.7,1.9-5.7,2.6c-0.2,0.1-0.4,0.1-0.5,0.2c-0.8-2-1.4-3.7-1.6-4.1 c0-0.1-0.1-0.4-0.3-0.7c-0.6-1.5-2-4.8-2-7.4c0-1.7,0.5-3.1,2.2-3.5c0.7-0.2,1.3-0.2,1.8-0.1c1.9,0.3,3,2,3.6,3.5 c0,0,0,0.1,0,0.1c0.5,1.3,0.7,2.4,0.7,2.4s0,0.1,0.1,0.3c0.1,0.4,0.3,1.2,0.6,2.3C539.1,245.4,539.4,246.9,539.8,248.5z"></path> </g> <g> <path class="st7" d="M530.2,225.3c-0.6,1.2-1.3,8.8-1.3,8.8s-9.1,3.4-8.2,1.5c0.4-0.9,0.5-2,0.6-3c0-0.8-0.1-1.5-0.1-1.8 c0-0.2,0-0.3,0-0.3S530.9,224.1,530.2,225.3z"></path> </g> <g> <path class="st6" d="M522.2,215.3c0,0,3.8,6.2,7.3,8.7c3.5,2.4,1.7,4.4,1.7,4.4s9.1-19.1,0.4-20.4c-8.6-1.3-13.9-1.4-14.1,11.5 C517.5,219.5,521.4,215.2,522.2,215.3z"></path> </g> <g> <path class="st9" d="M526.4,230c-1.4,2.1-5.1,2.6-5.1,2.6s0,0,0,0c0-0.8-0.1-1.5-0.1-1.8C523.6,231.2,526.4,230,526.4,230z"></path> </g> <path class="st10" d="M513.4,241.2C513.4,241.2,513.4,241.2,513.4,241.2c0,0-0.2,0.4-0.4,2.1l1.3-2c0,0,2.4-3.4,3.2-4.3 c0.8-0.9,2-1.7,2-1.7S514.9,237.5,513.4,241.2z"></path> <path class="st8" d="M531.5,246.3c0,0,5.8-2.3,7.6-2.4c0,0-1.2-9.4-6.9-8.4C526.5,236.5,531.5,246.3,531.5,246.3z"></path> <path class="st7" d="M521.1,234.4c0,0-4.3,6.6-2.8,7.2c1.5,0.6,9.3-0.8,12.6-7C530.9,234.6,525.9,232,521.1,234.4z"></path> </g> <rect x="158.6" y="379.5" transform="matrix(1 -7.578531e-03 7.578531e-03 1 -2.8867 1.3903)" class="st11" width="46.8" height="4.3"></rect> <rect x="186.8" y="358.4" transform="matrix(0.2925 -0.9563 0.9563 0.2925 -196.0778 456.14)" class="st11" width="46.8" height="4.3"></rect> <g> <rect x="285.8" y="389.2" class="st12" width="3.6" height="112.4"></rect> </g> <g> <rect x="148.9" y="382.8" transform="matrix(-1 -1.224647e-16 1.224647e-16 -1 458.1468 771.9071)" class="st13" width="160.4" height="6.4"></rect> </g> <g> <rect x="169.4" y="389.2" transform="matrix(-1 -1.224647e-16 1.224647e-16 -1 342.4398 890.7384)" class="st12" width="3.6" height="112.4"></rect> </g> <rect x="96.1" y="427.8" class="st14" width="4.4" height="55.4"></rect> <path class="st15" d="M153.3,476.6c0,0,0,2.4,0.8,5.3c0.6,2.1,1.8,10.2,3.2,11.3c1.5,1.1,6.3,4.1,5.6,7.2 c-0.7,3.1-1.3,5.2-6.5,3.4c-5.2-1.8-8.7-2.9-9.7-7.4c-1-4.6-3.8-8.7-3.8-8.7l-3.8,9.4l-2-0.8c0,0,3-10.1,2.7-11 c-0.3-0.9,1.4-8.9,7.7-10.9C154,472.3,153.3,476.6,153.3,476.6z"></path> <path class="st15" d="M188.1,479.6c0,0,1,2.3,2.8,4.6c1.3,1.7,5.4,8.8,7.2,9.3c1.8,0.5,7.4,1.5,7.9,4.6c0.5,3.1,0.7,5.3-4.8,5.6 c-5.5,0.2-9.1,0.6-11.8-3.3c-2.6-3.9-6.8-6.7-6.8-6.7v10.1h-2.1c0,0-1-10.5-1.6-11.2c-0.6-0.7-2.1-8.8,3-13 C187.1,475.4,188.1,479.6,188.1,479.6z"></path> <path class="st7" d="M132.1,342.6c0,0,1.2-4.3,1.3-4.9c0.1-0.6,1.3-1.7,2.7-2.9c1.4-1.2,3.9-2.1,4.2-2c0.3,0.1,0.7,0,1.2,0.7 c0.5,0.7,0.6,1.5,0.6,1.5s1,0.5,1,1.5c0,0,0.9,0.5,0.7,1.7c0,0,0.9,0.5,0.7,1.4c0,0-1.2,1.1-1.5,1.7c-0.3,0.5-2.9,2.7-5.7,4.4 C137.4,345.7,133.9,348.3,132.1,342.6z"></path> <path class="st16" d="M137.4,339.2c0,0,0.5,1.8,0.4,2.4c-0.1,0.6,4.2,0.7,4.2,0.7S139.7,338.6,137.4,339.2z"></path> <path class="st15" d="M89.2,350.1c1.7-2.8,4-4.1,11.4,1c7.3,5.1,5.6,4.1,7.4,5.7c1.8,1.6,9.4,5.6,9.4,5.6s4.5-4.5,6.6-7.6 c2.4-3.6,7.5-13.1,7.5-13.1l7.1,5.3c0,0-13.8,25-16.7,26.9c-2.9,1.8-11.6-1.2-16.1-3.2c-4.5-1.9-9.3-4.4-11.4-4.9 C92.4,365.2,84.7,357.4,89.2,350.1z"></path> <rect x="132.2" y="328.3" transform="matrix(0.2143 -0.9768 0.9768 0.2143 -211.1593 395.3911)" class="st17" width="16.1" height="1.4"></rect> <path class="st18" d="M140,333.1c0,0-3.6,3.1-3.2,3.7c0.4,0.6,1,0.6,1,0.6l-0.9,1.9c0,0,0.1,1.6,1.8,1c0,0,0,1.5,1.6,0.7 c0,0,0.4,1,1.2,0.8c0.8-0.2,3-2.3,3-2.3s0.3-0.6-0.7-1.4c0,0,0.2-1.1-0.7-1.7c0,0,0.1-0.9-1-1.5c0,0,0-2.1-1.7-2.2 C140.4,332.8,140.1,333,140,333.1z"></path> <path class="st7" d="M133.5,337.7c0,0,2.4-2.2,4.2-2.8c0.4-0.1,0.8-0.2,1.1,0.1c0.3,0.3,0.2,1.2-0.8,2.2c-1,1-1.8,2.7-1.8,2.7 S134.9,340.7,133.5,337.7z"></path> <path class="st19" d="M123.4,365.3c0,0,1.4-5.2-0.3-9.3c0,0,0.6,4.2-1.2,7.2C120.6,365.3,123.4,365.3,123.4,365.3z"></path> <path class="st20" d="M149.5,366.1c0,0,3.9-28.7,10.6-41.2h-9.9c0,0-11.1,19.6-9,39.4L149.5,366.1z"></path> <path class="st7" d="M151.9,344.6c0,0,1.1-2.1,1.4-2.8c0.3-0.7,1.4,0.5,1.2,1.4C154.4,344.1,151.9,344.6,151.9,344.6z"></path> <path class="st7" d="M160.7,349.4c0,0-0.3,1-0.7,1.4c0,0-0.7,0.7-1.2,1.2c-0.1,0.2-0.3,0.3-0.3,0.4c-0.3,0.4-0.8,1.4-1.8,2.2 c-1,0.8-4.8,3.3-4.8,3.3l-2.7-2.9l-2.1-2.2c0,0,1.8-6.8,2.6-7.6c0.1-0.1,0.2-0.2,0.3-0.2c0.8-0.7,1.6-0.8,2.1-1.1 c0.2-0.1,1.9-1.1,2.4-0.9c0.8,0.3,1.2,0.8,1.3,1.3c0,0,1.5,0.6,1.9,1.6c0,0,1.4,0.5,1.6,1.9C159.4,347.8,160.8,348.5,160.7,349.4z "></path> <path class="st7" d="M178.3,423.4c0,0-6.6,14.7-11.2,25.3c-0.8,1.8-1.5,3.4-2.2,4.9c-0.8,1.7-1.4,3.1-1.8,4.1 c-3,6.7-10.3,21.3-10.3,21.3s-5.5,0.2-5.8-4.5c0,0,5.3-10.1,5.3-17.3c0-7.1,1-28.1,7.8-32.7C168.3,419,173.7,418,178.3,423.4z"></path> <path class="st7" d="M117.7,395.4c0,0,1.4,1.4,2.6,1.7c1.2,0.3,20.7,1.8,29.8,4.8c9,3,21.1,4.9,23.3,7.4c2.2,2.6,6,16.6,5.9,19.3 c-0.1,2.7,7.9,47.5,8.9,51c0.5,1.9-7.3,1.1-7.3,1.1s-11.1-26.5-13.5-31.4c-4.4-9-4.6-20-6.2-21.7c-1.6-1.7-19.4-5.5-29.6-5.5 s-33.1,0.9-35.5-0.5c-2.4-1.4-17.8-11.5-11.4-25C91.1,383.1,117.7,395.4,117.7,395.4z"></path> <path class="st15" d="M161.8,405.1l-16.2,31.2c0,0-4.9-11.6-13.4-13.6c-8.5-2-42.5-0.9-42.5-0.9s-15.6-19.7-2.2-30.1 c13.4-10.3,28.9,1.6,28.9,1.6s3.2,3.5,4.8,3.6C132.6,397.5,144.6,399.6,161.8,405.1z"></path> <path class="st7" d="M198.1,493.4c0,0-4.9,1.2-6.8,0c-1.9-1.2-8.3-12.1-10.4-12.7c0,0,2.1-4.2,7.3-1.1 C188.1,479.6,196.7,491.6,198.1,493.4z"></path> <path class="st7" d="M157.4,493.2c0,0-5-0.7-6.3-2.5c-1.3-1.8-3.2-14.3-4.9-15.7c0,0,3.5-3.1,7.2,1.7 C153.3,476.6,156.8,491,157.4,493.2z"></path> <path class="st7" d="M106,297.5c3.9-0.2,12.5,1.8,13.9,12.1c0,0-0.3,2.8-1,5c-0.7,2.2,1.3,8.6,0.8,8.9c-0.5,0.3-2.6,0.7-2.6,0.7 s-2.3,7-4.7,7c-2.5-0.1-11.8-2-16.2-10.7C91.6,311.7,90.3,298.3,106,297.5z"></path> <path class="st7" d="M108.9,328c0,0-0.3,1-0.6,2.4c-0.2,0.7-0.4,1.6-0.5,2.5c-0.4,2.6-0.7,5.6,0,7.6c0,0-5.5,1.9-9.8-5.8 c0,0,1.9-8.3-0.6-13.4C95,316.3,108.9,328,108.9,328z"></path> <path class="st15" d="M119.8,309.6c0,0-6,5.4-12.3,4.9c-6.4-0.4-10.6,7.6-10.6,7.6s-9.5-12-1.9-21.7 C102.8,290.8,121.2,297.6,119.8,309.6z"></path> <path class="st7" d="M104.6,314.5c0-1.2-1.4-3-3.4-1.4c-2,1.7,0.7,7.4,2.3,6.9C105.2,319.4,104.7,315.7,104.6,314.5z"></path> <path class="st9" d="M108.3,330.4c-0.2,0.7-0.4,1.6-0.5,2.5c-5.1-3.2-7.6-7.1-7.6-7.1C103,328.5,108.3,330.4,108.3,330.4z"></path> <path class="st15" d="M123.1,359.9c-1.1,5.3-4.2,5.6-4,9.5c0.2,3.9,1.4,4.3-0.7,10.5c-0.4,1.1-0.7,2.4-0.9,3.7 c0,0.2-0.1,0.3-0.1,0.5c-0.1,0.7-0.2,1.4-0.3,2.1c-0.2,1.3-0.3,2.6-0.4,3.8c-0.2,3.1,2,5.4,2,5.4s-19.9,11.9-33.6,10.3 c0,0,3.5-14.9,5.5-20c1.9-5.1,1.4-28.7-0.1-33.8c-2.1-7.5,2.1-18.7,7.9-20.1l9,4.1c0,0,9,10.8,11.1,12.4 C120.4,349.9,124.2,354.5,123.1,359.9z"></path> <path class="st15" d="M93.5,338.1c2.5-2.1,6.2-5.7,11.5,1.4c5.3,7.1,9.2,11.7,10.4,13.8c1.2,2.1,11.2,16.6,11.2,16.6 s5.3-5,8.4-7.3c3.4-2.6,12.8-12.4,12.8-12.4l6.2,6.9c0,0-21.5,23.8-24.8,24.7c-3.3,0.8-12.6-7.5-16.3-10.8 c-3.7-3.2-14-15.1-15.8-16.2C95.2,353.7,86.9,343.6,93.5,338.1z"></path> <path class="st9" d="M167,448.7c-0.8,1.8-1.5,3.4-2.2,4.9c-2.4-7.8-2.2-20.7-2.2-20.7C164.1,441.9,167,448.6,167,448.7z"></path> <rect x="63.2" y="421.8" class="st1" width="69" height="7.6"></rect> <path class="st1" d="M99.1,397.5c0,0-1.7,7,6.5,8.6c8.2,1.6,18.3,3.6,18.3,16.3H95.5L99.1,397.5z"></path> <polygon class="st7" points="141.3,321 142.4,318.8 142.6,321.3 "></polygon> <path class="st1" d="M63.2,429.4L39.1,328c0,0,43.6-6.8,48.8,12.8c5.2,19.6,13.7,77.8,24.1,81.4 C122.4,425.7,63.2,429.4,63.2,429.4z"></path> <path class="st19" d="M119.3,376.6c0,0-0.4,1.9-0.9,3.4l-10.6-13.8L119.3,376.6z"></path> <path class="st15" d="M92.7,313.5c0,0,4.2,11.1,3.1,14.1c0,0,6.5-2.8,5.4-10.1C99.9,310.3,92.7,313.5,92.7,313.5z"></path> <polygon class="st15" points="107.9,336.5 107.9,334.3 98.5,329.8 95.3,333.5 "></polygon> <circle class="st21" cx="137.3" cy="497.4" r="3.6"></circle> <polygon class="st14" points="59.6,493.9 60.5,496.4 99.1,484.5 97.3,479.3 "></polygon> <polygon class="st14" points="137.3,493.9 136.3,496.4 97.7,484.5 99.4,478.9 "></polygon> <polygon class="st14" points="110.1,496.2 110.1,499.1 97.7,484.5 99.4,478.9 "></polygon> <circle class="st21" cx="106.8" cy="497.4" r="3.6"></circle> <circle class="st21" cx="59.6" cy="497.4" r="3.6"></circle> <g> <path class="st5" d="M565.8,135.1c0,9.6-3.4,18.3-9.2,25.1c-1.3,1.6-2.8,3.1-4.4,4.4c-0.4,0.4-0.9,0.8-1.4,1.1 c-0.5,0.4-1.1,0.8-1.6,1.2c-5.1,3.6-11.2,6.1-17.8,6.9c-1.2,0.1-2.3,0.2-3.5,0.3c-0.4,0-0.9,0-1.3,0c-1.3,0-2.5-0.1-3.7-0.2 c-1.4-0.1-2.7-0.3-4.1-0.6c-5.9-1.2-11.3-3.7-16-7.3c-1.4-1.1-2.7-2.2-3.9-3.5c-0.2-0.2-0.5-0.5-0.7-0.7 c-0.9-0.9-1.7-1.9-2.5-2.9c-5.1-6.6-8.2-14.9-8.2-23.9c0-21.6,17.5-39.1,39.1-39.1C548.3,96,565.8,113.5,565.8,135.1z"></path> <g> <g> <path class="st22" d="M552.2,156.6l-2.9,10.3c-5.1,3.6-11.2,6.1-17.8,6.9c-1.2,0.1-2.3,0.2-3.5,0.3c-0.4,0-0.9,0-1.3,0 c-1.3,0-2.5-0.1-3.7-0.2c-1.4-0.1-2.7-0.3-4.1-0.6c-5.9-1.2-11.3-3.7-16-7.3c-0.6-3.4-1.1-7.2-1.7-10.7 c2.9-1.1,12-4.2,17.8-6.1c0.1,0,0.2-0.1,0.2-0.1c0.1,0,0.3-0.1,0.4-0.1c0.3-0.1,0.7-0.2,1-0.3c0.3-0.1,0.6-0.2,0.9-0.3 c1.2-0.4,2-0.7,2.3-0.8c0,0,0,0,0,0c0.1,0,0.1,0,0.1,0l0.1,0l7.8,0.6l1.3,0.1l0.4,0c0,0,0.1,0,0.2,0c0.5,0.1,1.8,0.5,3.6,1 c0,0,0,0,0,0C541.9,150.7,549.4,153.4,552.2,156.6z"></path> </g> <g> <path class="st23" d="M528.8,115.7c0,0,9.3,1.6,7.7,16.1c-1.6,14.6-9.8,13.3-10.3,13.3c-0.5,0-8.3,0.2-8.7-17.6 C517.5,127.4,517.4,114.3,528.8,115.7z"></path> </g> <g> <path class="st23" d="M532.8,140.8c0,0-0.3,6,0.2,7.3c0.6,1.3-7.5,5.4-12.5,0.7c0,0,1-6.5,0.7-8.9 C521,137.7,532.8,140.8,532.8,140.8z"></path> </g> <g> <path class="st23" d="M536.7,127.7c0,0,1-1.1,1.4,0c0.4,1.1-1.6,6-1.5,6.2c0,0-0.2,0.4-0.4,0.2 C535.9,133.9,536.7,127.7,536.7,127.7z"></path> </g> <g> <path class="st23" d="M517.6,127.3c0,0-1-1.1-1.4,0c-0.4,1.1,1.1,6,1.3,6.3c0,0,0.3,0.5,0.6,0.3 C518.3,133.6,517.6,127.3,517.6,127.3z"></path> </g> <g> <path class="st24" d="M537.3,126.4c-0.3,2-0.6,3.5-0.6,3.5l-1.4,1.8c0,0,0.1-3.9-0.1-4.5c-0.1-0.2-0.2-0.6-0.3-1.1 c-0.2-0.7-0.3-1.6-0.4-1.8c-0.2-0.4-8-2.7-14.9,0.5c0,0,0.1,0.6,0.1,1.3c0,0.8-0.1,1.7-0.4,1.8c-0.7,0.2-0.4,4.6-0.4,4.6 l-1.1-1.2c0,0-0.3-2.3-0.6-4.9c0,0,0,0,0,0c-0.1-0.6-0.1-1.2-0.2-1.8c-0.2-2.6,0.1-7.4,3.5-10.2c2.3-1,6-1.8,12.1,0.1 c0,0,1.4,0.1,1.8,0.5C538.1,118.9,537.3,126.4,537.3,126.4z"></path> </g> <path class="st25" d="M522,143.1c0,0,1.5,2.1,4.9,2c3.4-0.1,4.9-1.9,4.9-1.9s-1.6,3.4-5,3.4C523.6,146.6,522,143.1,522,143.1z"></path> <path class="st23" d="M519.7,149c0,0,2.5,4.3,7.2,4.7c3,0.3,5.6-3.5,6.8-5.4C533.7,148.3,527,145.4,519.7,149z"></path> <path class="st20" d="M532.9,147c0,0-1.9,2.5-6,5.2l2.5,3.9l4.3-7.7L532.9,147z"></path> <path class="st20" d="M520.8,147.5c0,0,2.4,3,6.1,4.6l-2.8,4l-4.8-7L520.8,147.5z"></path> <path class="st26" d="M526.9,152.1l2.2,3.3c0,0-2.3,1.3-4.4-0.1L526.9,152.1z"></path> <path class="st11" d="M554.7,156c0,0,0,0.1-0.1,0.2c-0.2,0.8-1.1,4.1-2.3,8.4c-0.4,0.4-0.9,0.8-1.4,1.1 c-0.5,0.4-1.1,0.8-1.6,1.2c-5.1,3.6-11.2,6.1-17.8,6.9c0.6-13.5,2.2-25.5,2.2-25.5c1.3,0.3,2.5,0.7,3.6,1c0,0,0,0,0,0 c9.9,2.8,14.9,5.3,16.6,6.3c0,0,0,0,0,0C554.5,155.9,554.7,156,554.7,156z"></path> <path class="st11" d="M518.9,173.3c-5.9-1.2-11.3-3.7-16-7.3c-1.4-1.1-2.7-2.2-3.9-3.5c-0.2-0.2-0.5-0.5-0.7-0.7 c-0.7-2.9-1.1-4.8-1.2-4.9l0,0c0,0,4.8-3.2,21.9-7.7c0,0,0,0,0,0C519.1,149.6,519.1,160.5,518.9,173.3z"></path> <path class="st26" d="M528.1,155.8c-0.2,3.6-0.2,10.5-0.1,18.3c-0.4,0-0.9,0-1.3,0c-1.3,0-2.5-0.1-3.7-0.2 c0.8-9.7,2-15.8,2.6-18.2c0.2-0.8,0.3-1.2,0.3-1.2l2.3,0.4C528.2,155.2,528.2,155.5,528.1,155.8z"></path> <g> <path class="st11" d="M556.6,160.2c-1.3,1.6-2.8,3.1-4.4,4.4c-0.4,0.4-0.9,0.8-1.4,1.1l3.1-10.1l0,0c0,0,0,0,0,0 c0.2,0.1,0.4,0.3,0.6,0.6C555.2,157,555.9,158.4,556.6,160.2z"></path> </g> <g> <path class="st11" d="M499,162.6c-0.2-0.2-0.5-0.5-0.7-0.7c-0.9-0.9-1.7-1.9-2.5-2.9c0.4-1.1,0.9-1.8,1.3-2l0,0L499,162.6z"></path> </g> </g> </g> <path class="st27" d="M291.9,94h-45.7c-1.9,0-3.5-1.5-3.5-3.5v-5.3c0-1.9,1.5-3.5,3.5-3.5h45.7c1.9,0,3.5,1.5,3.5,3.5v5.3 C295.3,92.4,293.8,94,291.9,94z"></path> <g> <g> <g> <g> <path class="st0" d="M264.5,174.1c2.4,0.8,5.1,1.3,7.8,1.3c8.2,0.1,15.6-3.7,20.3-9.8c3.3-4.2,5.2-9.4,5.3-15.1 c0-0.6,0-1.1,0-1.7c-0.1-2.5-0.6-5-1.5-7.3c-3.5-9.6-12.6-16.5-23.4-16.6c-5.8-0.1-11.2,1.8-15.5,5.1 c-6,4.5-10,11.7-10.1,19.9C247.2,161.1,254.4,170.7,264.5,174.1z M253.6,149.9c0.1-6.1,3-11.4,7.5-14.8 c3.3-2.5,7.3-3.9,11.7-3.9c8.1,0.1,15,5.3,17.6,12.5l0,0c0.6,1.7,1,3.5,1.1,5.4c0,0.4,0,0.8,0,1.3c-0.1,4.3-1.5,8.2-4,11.4 c-3.5,4.5-9,7.4-15.2,7.3c-2,0-4-0.4-5.8-1C258.9,165.6,253.5,158.4,253.6,149.9z"></path> </g> </g> </g> <g> <g> <g> <path class="st28" d="M287.6,161.8l5,3.9c-4.7,6-12.1,9.9-20.3,9.8c-2.7,0-5.3-0.5-7.8-1.3l2-6c1.8,0.6,3.8,1,5.8,1 C278.5,169.2,284.1,166.3,287.6,161.8z"></path> </g> </g> </g> <g> <g> <g> <path class="st0" d="M291.5,149.1l6.3-0.3c0,0.6,0,1.1,0,1.7c-0.1,5.7-2,11-5.3,15.1l-5-3.9c2.4-3.1,3.9-7.1,4-11.4 C291.5,150,291.5,149.6,291.5,149.1z"></path> </g> </g> </g> <g> <g> <g> <path class="st0" d="M291.5,149.2c-0.1-1.9-0.5-3.7-1.1-5.4l0,0l5.9-2.2c0.8,2.3,1.3,4.7,1.5,7.3L291.5,149.2z"></path> </g> </g> </g> <g> <g> <g> <path class="st0" d="M257.4,130c4.3-3.3,9.7-5.2,15.5-5.1c10.8,0.1,19.9,7,23.4,16.6l-5.9,2.2l0,0 c-2.6-7.2-9.5-12.4-17.6-12.5c-4.4-0.1-8.5,1.4-11.7,3.9L257.4,130z"></path> </g> </g> </g> </g> <g> <g> <path class="st0" d="M461.8,224.5h-18.9c-2.6,0-4.6-2.1-4.6-4.6v-18.9c0-2.6,2.1-4.6,4.6-4.6h18.9c2.6,0,4.6,2.1,4.6,4.6v18.9 C466.5,222.4,464.4,224.5,461.8,224.5z"></path> </g> <g> <g> <g> <path class="st29" d="M451.5,216.6l-7.1-6.2c-0.6-0.5-0.6-1.4-0.1-2c0.5-0.6,1.4-0.6,2-0.1l5,4.4l7.2-8c0.5-0.6,1.4-0.6,2-0.1 c0.6,0.5,0.6,1.4,0.1,2L451.5,216.6z"></path> </g> </g> </g> </g> <g> <g> <path class="st0" d="M461.8,260.5h-18.9c-2.6,0-4.6-2.1-4.6-4.6V237c0-2.6,2.1-4.6,4.6-4.6h18.9c2.6,0,4.6,2.1,4.6,4.6v18.9 C466.5,258.5,464.4,260.5,461.8,260.5z"></path> </g> <g> <g> <g> <path class="st29" d="M451.5,252.7l-7.1-6.2c-0.6-0.5-0.6-1.4-0.1-2c0.5-0.6,1.4-0.6,2-0.1l5,4.4l7.2-8c0.5-0.6,1.4-0.6,2-0.1 c0.6,0.5,0.6,1.4,0.1,2L451.5,252.7z"></path> </g> </g> </g> </g> <g> <g> <path class="st0" d="M461.8,296.6h-18.9c-2.6,0-4.6-2.1-4.6-4.6v-18.9c0-2.6,2.1-4.6,4.6-4.6h18.9c2.6,0,4.6,2.1,4.6,4.6V292 C466.5,294.5,464.4,296.6,461.8,296.6z"></path> </g> </g> <g> <g> <g> <g> <path class="st30" d="M349.1,463.3c0,0,0.8,5.7,1.4,8.1c0.6,2.4,5.8,9.4,5.7,10.6c-0.1,1.2-2.3,2.6-3.4,1.6 c-1.1-1-8.6-8.6-10.1-11.9c-1.6-3.3-6.8-7.5-7.4-9c-0.5-1.5,6.2-5.7,7.9-6.4C345,455.7,349.1,463.3,349.1,463.3z"></path> </g> </g> </g> <path class="st7" d="M336,361.8c0,0,0.7,3.6,1.2,4.3c0.5,0.7,1.9,4.1,2,4.5c0.1,0.5,1,3.9,1.1,4.3c0.1,0.4-0.8,1.1-1.5,0.2 c-0.4-0.6-1.1-2.8-1.4-3.5c-0.3-0.7-1.2-3-1.4-2.6c-0.2,0.4-0.2,3.4-0.2,4.2c0,0.8,0.5,3.2,0.7,4.2c0.2,1,1.6,5.1,1,5.4 c-0.5,0.2-1,0.2-1.7-1c0,0-1.1,0.6-1.7-0.8c0,0-1,0.4-1.6-1.4c0,0-0.7-0.4-1-1c-0.3-0.6-1.8-6.1-1.8-8.3c0-2.2,0.5-3.8,0.4-5.4 c-0.1-1.6-0.9-4.9-0.9-4.9L336,361.8z"></path> <polygon class="st31" points="345.3,455.5 343.3,456.4 349.1,463.3 351.1,461.1 "></polygon> <path class="st30" d="M365.8,469.9c0,0-1.3,3.2-2.4,4.4c-1.1,1.3-5.3,3.5-5.3,7.2c0,4,7.1,2.9,9.9,2.8c2.8-0.1,3-2.3,4.2-4.6 c1.2-2.3,2.4-1.9,2.6-3.7c0.2-1.8-0.9-5.9-0.9-5.9L365.8,469.9z"></path> <path class="st31" d="M365.7,468.8l-0.2,1.9c0,0,4.4,1.6,8.5,0.2l-0.2-2.6L365.7,468.8z"></path> <path class="st32" d="M390.1,420.3c0-5-3.6-48.2-3.5-49.9c0.1-1.1-1-11.4-1.9-18.5c0-0.1,0-0.1,0-0.2c0,0,0,0,0,0 c-0.2-2-0.4-3.7-0.6-4.9c-0.1-0.5-0.1-0.9-0.1-1.2c0-0.2,0-0.3,0-0.3s-23.4-4.6-35.5-0.3c-0.5,0.2-1,0.4-1.5,0.6 c0,0,0,0.2-0.1,0.6c-0.1,0.9-0.4,2.8-0.7,5.3c-0.1,0.4-0.1,0.9-0.2,1.3c-1.7,13-0.6,27.2,2.4,41.7c3,14.2,4.6,24.9,4.9,27 c0.4,2.7,1.6,10.2,2.9,18.4c-6.4,7.9-11.9,14.7-11.5,15.3c1,1.7,10,11,10.5,9.3c0,0,1.6-1.8,4.2-4.8c0.8,5,1.4,8.4,1.4,8.4 s9.9,2.4,13.5,0.2c0,0-1.4-10.9-2.9-22.7C380.5,434.9,390.1,422.9,390.1,420.3z M368.1,416.7c-0.1-6.7-3.1-44-2.8-44 c1.5,0,9.7,35.5,10,40.5c0.1,1-1.2,3.3-3.3,6.3c-0.9,1.4-2,2.9-3.2,4.5l0,0C368.4,420.4,368.2,417.7,368.1,416.7z"></path> <g> <path class="st22" d="M394,283.3l-6.3,22.5c-0.2,0.7-0.5,1.6-0.7,2.7l0,0c0,0,0,0,0,0c-1,4-2.3,10.1-2.7,16.9 c-0.3,4.6,0.6,23.3,0.6,23.3s-9.5,3.5-23.7,2.6c0,0-15.3-0.4-14-9.7c3.3-24.8,0.1-35.1-0.4-37.6c0,0-2.1-12.1-3.6-22.2 c4.3-1.6,22.7-7.8,22.7-7.8l9.5,0.7C375.3,275,389.8,278.5,394,283.3z"></path> </g> <g> <path class="st23" d="M370.6,242.4c0,0,9.3,1.6,7.7,16.1c-1.6,14.6-9.8,13.3-10.3,13.3c-0.5,0-8.3,0.2-8.7-17.6 C359.3,254.2,359.2,241,370.6,242.4z"></path> </g> <g> <path class="st23" d="M374.6,267.6c0,0-0.3,6,0.2,7.3c0.6,1.3-7.5,5.4-12.5,0.7c0,0,1-6.5,0.7-8.9 C362.8,264.4,374.6,267.6,374.6,267.6z"></path> </g> <g> <path class="st23" d="M378.5,254.4c0,0,1-1.1,1.4,0c0.4,1.1-1.6,6-1.5,6.2c0,0-0.2,0.4-0.4,0.2 C377.7,260.6,378.5,254.4,378.5,254.4z"></path> </g> <g> <path class="st23" d="M359.4,254c0,0-1-1.1-1.4,0c-0.4,1.1,1.1,6,1.3,6.3c0,0,0.3,0.5,0.6,0.3C360.1,260.3,359.4,254,359.4,254z "></path> </g> <g> <path class="st24" d="M379.1,253.2c-0.3,2-0.6,3.5-0.6,3.5l-1.4,1.8c0,0,0.1-3.9-0.1-4.5c-0.1-0.2-0.2-0.6-0.3-1.1 c-0.2-0.7-0.3-1.6-0.4-1.8c-0.2-0.4-8-2.7-14.9,0.5c0,0,0.1,0.6,0.1,1.3c0,0.8-0.1,1.7-0.4,1.8c-0.7,0.2-0.4,4.6-0.4,4.6 l-1.1-1.2c0,0-0.3-2.3-0.6-4.9c0,0,0,0,0,0c-0.1-0.6-0.1-1.2-0.2-1.8c-0.2-2.6,0.1-7.4,3.5-10.2c2.3-1,6-1.8,12.1,0.1 c0,0,1.4,0.1,1.8,0.5C379.9,245.7,379.1,253.2,379.1,253.2z"></path> </g> <path class="st25" d="M363.8,269.8c0,0,1.5,2.1,4.9,2c3.4-0.1,4.9-1.9,4.9-1.9s-1.6,3.4-5,3.4 C365.3,273.3,363.8,269.8,363.8,269.8z"></path> <path class="st23" d="M361.5,275.7c0,0,2.5,4.3,7.2,4.7c3,0.3,5.6-3.5,6.8-5.4C375.5,275.1,368.8,272.2,361.5,275.7z"></path> <path class="st20" d="M374.6,273.7c0,0-1.9,2.5-6,5.2l2.5,3.9l4.3-7.7L374.6,273.7z"></path> <path class="st20" d="M362.6,274.3c0,0,2.4,3,6.1,4.6l-2.8,4l-4.8-7L362.6,274.3z"></path> <path class="st26" d="M368.7,278.8l2.2,3.3c0,0-2.3,1.3-4.4-0.1L368.7,278.8z"></path> <path class="st30" d="M346.5,353.2c0,0,11.7,4.3,38,0.2l-0.4-4.8c0,0-15.3,4.5-37.2,0.6L346.5,353.2z"></path> <path class="st11" d="M375.5,275.1c0,0-2.7,20.4-2.4,38c0.4,17.6,13.6,49.5,13.6,49.5s5.8-5.6,8.3-8.8c0,0-9-26.1-8.9-30.8 c0.2-4.7,10.2-40.2,10.2-40.2S390.9,279.1,375.5,275.1z"></path> <path class="st11" d="M360.9,275.9c0,0,0,19.5-0.4,37.1c-0.4,17.6-2.7,50.3-2.7,50.3s-13-2.1-15.5-5.2c0,0,5.3-30.4,5.1-35.1 c-0.2-4.7-8.5-39.3-8.5-39.3S343.8,280.5,360.9,275.9z"></path> <rect x="362.4" y="350.1" class="st33" width="7.2" height="5.3"></rect> <path class="st26" d="M367.7,281.3c0,0-3.2,10.9-3.5,32.6c-0.3,21.7,0.4,27.9,0.4,27.9l2.5,4.9l3.3-5.2c0,0-1.1-49.9-0.4-60 L367.7,281.3z"></path> <g> <g> <g> <g> <g> <path class="st7" d="M386.1,362.7c0,0,0.8-0.5,1-0.9c0,0,0.3-0.7,0.6-1.2c0.1-0.2,0.2-0.3,0.2-0.4c0.3-0.3,0.9-1,1.3-2 c0.4-1,0.7-5.4,0.7-5.4l-2.7-0.8l-2.4-1.1c0,0-5.4,4.1-5.8,5c0,0.1-0.1,0.2-0.1,0.3c-0.3,0.8-0.2,1.4-0.3,1.9 c0,0.2-0.3,1.7,0.1,2c0.5,0.5,1.1,0.6,1.6,0.6c0,0,1,0.9,2,1c0,0,0.9,0.8,2.2,0.6C384.3,362.2,385.3,363,386.1,362.7z"></path> </g> </g> </g> </g> </g> <g> <path class="st11" d="M382.6,350.4c0,0,3.7,3.3,8.9,5c0,0,17.3-28.1,17.5-30.2c0.2-1.9-8.6-40.1-12.5-42.6l-7.2,21 c0.5-0.1,8.2,16,8.2,18.1C397.5,324.6,382.6,350.4,382.6,350.4z"></path> </g> <g> <path class="st11" d="M338,365.6c0,0-3.9,0.7-9.5,0.4c0,0,2.2-36.1,2-38.1c-0.2-1.9,4.5-41.8,8.5-44.2l7.1,21.3 c-0.5-0.1-4.7,21.7-4.8,23.8C341.2,331.5,338,365.6,338,365.6z"></path> </g> <polygon class="st32" points="378,354.4 389.1,360.2 384.8,368.3 375.3,358.2 "></polygon> <path class="st30" d="M372.1,419.6l-1.1,22l-2.1-17.5v0C370,422.4,371.1,420.9,372.1,419.6z"></path> </g> <g> <rect x="316.2" y="152.7" class="st0" width="6.5" height="21.2"></rect> </g> <path class="st5" d="M554.7,294.2c0,16.5-13.4,30-30,30c-16.6,0-30-13.5-30-30c0-16.6,13.4-30,30-30 C541.3,264.1,554.7,277.6,554.7,294.2z"></path> <g> <rect x="305.6" y="158.7" class="st0" width="6.5" height="15.3"></rect> </g> <g> <rect x="326.8" y="142.9" class="st0" width="6.5" height="31.1"></rect> </g> <g> <g> <rect x="596.6" y="380.2" transform="matrix(-1 -1.224647e-16 1.224647e-16 -1 1234.8647 762.8127)" class="st34" width="41.6" height="2.5"></rect> </g> <g> <rect x="629" y="389.1" class="st12" width="3.6" height="112.4"></rect> </g> <g> <rect x="574.2" y="379.5" transform="matrix(-1 -1.224647e-16 1.224647e-16 -1 1177.3022 762.4706)" class="st35" width="29" height="3.5"></rect> </g> <g> <rect x="583.2" y="349.3" transform="matrix(-1 -1.224647e-16 1.224647e-16 -1 1177.3022 731.9866)" class="st36" width="11" height="33.3"></rect> </g> <g> <rect x="492.8" y="382.7" transform="matrix(-1 -1.224647e-16 1.224647e-16 -1 1145.9937 771.7604)" class="st13" width="160.4" height="6.4"></rect> </g> <g> <path class="st37" d="M684,344c0,0,1.8,24.6-3.1,27.5c-3,1.8-15,8.1-14.7,9.2c0.4,1.2,6.8,10.4,6.8,10.4s23.1-15.2,23.8-20 c0.7-4.7-1.1-36-4.3-37.5c-2.4-1.1-3.6-0.2-6.6,2C681.7,338.9,684,344,684,344z"></path> </g> <g> <g> <g> <path class="st38" d="M655.6,486.2c0,0,0.7,5,0.8,5.7c0.1,0.7,8-0.4,8-0.4l0.6-5.9C665,485.5,656.6,485.5,655.6,486.2z"></path> </g> </g> </g> <g> <g> <g> <path class="st32" d="M656.3,491.3c0,0-2.5,3-4.9,4.3c-2.4,1.3-6.2,1.8-7.6,3.2c-1,1-3.8,5.2,6.3,5.1c10-0.1,14.9,0.6,16-1 c1.1-1.6-1.6-11.9-1.6-11.9S662.1,491.8,656.3,491.3z"></path> </g> </g> </g> <g> <g> <g> <path class="st38" d="M605.1,486.2c0,0,0.7,5,0.8,5.7c0.1,0.7,8-0.4,8-0.4l0.6-5.9C614.5,485.6,606.1,485.5,605.1,486.2z"></path> </g> </g> </g> <g> <g> <g> <path class="st32" d="M605.8,491.3c0,0-2.5,3-4.9,4.3c-2.4,1.3-11.3,2.4-12.7,3.7c-1,1-2.7,4.9,11.4,4.5c10-0.3,14.9,0.6,16-1 c1.1-1.6-1.6-11.9-1.6-11.9S611.7,491.9,605.8,491.3z"></path> </g> </g> </g> <g> <g> <g> <path class="st32" d="M681,400.2c0,0-28.7,4.9-35.2,5.9c-6.5,1-41.6,9.8-46,12.4c-3.5,2.1,1.8,53,3.1,72.5h13.8l1-58.3 c16.6,0.4,28.4-3.9,40.5-2c12.1,1.8,22.2,4.4,29.8-5.9C688.2,424.7,688.5,402.4,681,400.2z"></path> </g> </g> </g> <g> <g> <g> <path class="st32" d="M652.8,491l13.5-0.8l1.3-57.5c7.1,0.2,9.6-0.3,15.4-1l10.9-25.3c-9.5,1.9-40.1,9.6-44.2,12.1 C646.2,420.6,651.5,471.5,652.8,491z"></path> </g> </g> </g> <g> <g> <g> <path class="st7" d="M667.8,292.7c0,0-10.5-2.9-14.5,5.3c-4,8.2-2.2,23.6,3.1,25.1c5.3,1.5,12.9-0.2,15.1-5.3 c2.2-5.1,4-12.3,3.4-17C674.4,296.1,670.6,293.8,667.8,292.7z"></path> </g> </g> </g> <g> <g> <g> <path class="st7" d="M659.2,321.4c0,0,0.1,6.2-0.6,7.5c-0.7,1.3,14.6,1,14.6,1s-2.4-7.5-1-13.8 C673.6,309.8,659.2,321.4,659.2,321.4z"></path> </g> </g> </g> <g> <g> <g> <path class="st39" d="M673,313.8c0,0-0.8,1.7-4.8,1.4c-4-0.3-9.2-5.1-10.9-5.5c-1.7-0.4-1.8-1.4-1.8-1.4l-0.9,1.6l-1.7,0.3 c0,0,1.2-4.8-1.4-6.5c-2.6-1.7,1.2-15.3,14.1-12c0,0,9.9,1.8,10,7.3C675.8,304.5,674.9,310.8,673,313.8z"></path> </g> </g> </g> <g> <g> <g> <path class="st34" d="M657.8,328.8c0,0,0-2.5,1.2-2.8c1.1-0.2,12-1.7,13.5-1.2l0.6,3.3C673,328.1,670.3,329.8,657.8,328.8z"></path> </g> </g> </g> <g> <g> <g> <path class="st7" d="M654.6,307.2c0.3-2.1,2.6-4.5,4-1.2c1.3,3.2-0.9,7.9-2.4,7.7C654.7,313.4,654.2,310,654.6,307.2z"></path> </g> </g> </g> <g> <g> <g> <path class="st11" d="M612.1,358.6C612.2,358.6,612.2,358.6,612.1,358.6C612.1,358.7,612.1,358.7,612.1,358.6z"></path> </g> </g> </g> <g> <g> <g> <path class="st39" d="M670.9,294.2c0,0,12.8-0.6,2.2,19.4L670.9,294.2z"></path> </g> </g> </g> <g> <g> <polygon class="st14" points="699.5,497.8 698.5,500.5 658.2,488 660.2,482.5 "></polygon> </g> </g> <g> <g> <rect x="656.8" y="442.3" transform="matrix(-1 -1.224647e-16 1.224647e-16 -1 1318.2778 928.3381)" class="st14" width="4.6" height="43.8"></rect> </g> </g> <g> <g> <rect x="645.6" y="439.9" transform="matrix(-1 -1.224647e-16 1.224647e-16 -1 1318.2778 882.4598)" class="st40" width="27" height="2.6"></rect> </g> </g> <g> <g> <polygon class="st14" points="618.4,497.8 619.4,500.5 659.7,488 657.9,482.2 "></polygon> </g> </g> <g> <g> <polygon class="st14" points="646.8,500.2 646.8,503.3 659.7,488 657.9,482.2 "></polygon> </g> </g> <g> <g> <circle class="st21" cx="618.4" cy="501.5" r="3.8"></circle> </g> </g> <g> <g> <circle class="st21" cx="650.3" cy="501.5" r="3.8"></circle> </g> </g> <g> <g> <circle class="st21" cx="699.5" cy="501.5" r="3.8"></circle> </g> </g> <g> <path class="st34" d="M630.8,439.9h56.4c2.1,0,3.8-1.7,3.8-3.8V434c0-2.1-1.7-3.8-3.8-3.8h-56.4c-2.1,0-3.8,1.7-3.8,3.8v2.2 C627,438.2,628.7,439.9,630.8,439.9z"></path> </g> <g> <rect x="513.3" y="389.1" transform="matrix(-1 -1.224647e-16 1.224647e-16 -1 1030.2856 890.5904)" class="st12" width="3.6" height="112.4"></rect> </g> <g> <path class="st41" d="M545.1,365.4h87.1c2.1,0,3.8-1.7,3.8-3.8v-59.2c0-2.1-1.7-3.8-3.8-3.8h-87.1c-2.1,0-3.8,1.7-3.8,3.8v59.2 C541.3,363.7,543,365.4,545.1,365.4z"></path> </g> <g> <rect x="545" y="302.2" transform="matrix(-1 -1.224647e-16 1.224647e-16 -1 1177.3024 657.1344)" class="st27" width="87.2" height="52.7"></rect> </g> <g> <rect x="545" y="302.2" transform="matrix(-1 -1.224647e-16 1.224647e-16 -1 1177.3024 608.623)" class="st42" width="87.2" height="4.2"></rect> </g> <g> <path class="st42" d="M550.6,351.7h5.8c1.3,0,2.3-1,2.3-2.3v-37.4c0-1.3-1-2.3-2.3-2.3h-5.8c-1.3,0-2.3,1-2.3,2.3v37.4 C548.3,350.6,549.3,351.7,550.6,351.7z"></path> </g> <g> <path class="st42" d="M611.9,313.5h16.7c0.7,0,1.3-0.6,1.3-1.3v-1.4c0-0.7-0.6-1.3-1.3-1.3h-16.7c-0.7,0-1.3,0.6-1.3,1.3v1.4 C610.6,312.9,611.2,313.5,611.9,313.5z"></path> </g> <g> <path class="st42" d="M613.2,352.7h14c1.4,0,2.6-1.2,2.6-2.6v-31.4c0-1.4-1.2-2.6-2.6-2.6h-14c-1.4,0-2.6,1.2-2.6,2.6v31.5 C610.6,351.6,611.8,352.7,613.2,352.7z"></path> </g> <g> <circle class="st43" cx="588.7" cy="359.8" r="3.1"></circle> </g> <g> <path class="st41" d="M569.1,382.8v-1.2c0,0,1.7-7.4,13.5-7.4c11.8,0,11.6,8.6,11.6,8.6H569.1z"></path> </g> <g> <g> <path class="st7" d="M594.3,375.3c0,0-2.6-0.2-3.5-0.8c-0.9-0.6-6.6-4.4-7.9-3.7c-1.3,0.6-10.1,3.3-9.8,4.6 c0.3,1.3,1.1,1.2,1.7,0.9c0.6-0.2,7-1.6,7.6-1.3c0,0-6.3,2.3-6.3,4c0,1.7,1.3,2.1,1.9,2.7c0.6,0.6,1.3,2.2,2.9,2.3 c1.6,0.1,9.5-2.6,11.1-2.7c1.6-0.1,4.6,0.1,4.8-0.2C597.1,380.8,594.3,375.3,594.3,375.3z"></path> </g> </g> <g> <g> <g> <path class="st37" d="M641,332.3c8.2-1.4,16.8-3.5,16.8-3.5l15.2-0.6c0,0,14,3.1,19.5,5.6c0.5,0.2,0.5,12.5,2,15.7l-4.6,9.6 c0,0-2.6,19.1-3.2,27.6c-0.3,3.9,0.7,37.7,0.7,37.7s-1.4,0.7-11.8,1.8c-10.4,1.1-36.4-0.4-36.6-1.6c-0.2-1.2,5-45.8,5.3-48.1 c0.4-3.5-1-19.9-1-19.9c-2,2.6-7,14.5-12.2,20.2c-3.1,3.3-18.2,5.4-21.1,5.5c-6.2,0.2-17.6,1.4-17.9,0.8 c-0.3-0.4-1-10.1-0.3-10.3c0.6-0.2,21.7-1.4,27.1-4.3c2-1,7.9-13.9,7.9-13.9S636.5,334.3,641,332.3z"></path> </g> </g> </g> <g> <path class="st34" d="M669.1,423.3h29.6c4,0,7.3-3.3,7.3-7.3v-46.6c0-4-3.3-7.3-7.3-7.3h-29.6c-4,0-7.3,3.3-7.3,7.3V416 C661.8,420.1,665,423.3,669.1,423.3z"></path> </g> <g> <path class="st34" d="M669.6,437.5c6.5,0,11.8-2.2,15.7-6.5c8.8-9.7,7.2-26.9,7.2-27.6c-0.1-1.3-1.3-2.3-2.7-2.2 c-1.3,0.1-2.3,1.3-2.2,2.7c0,0.2,1.4,15.7-5.9,23.8c-3,3.3-6.9,4.9-12,4.9c-1.4,0-2.5,1.1-2.5,2.5 C667.1,436.4,668.2,437.5,669.6,437.5z"></path> </g> <g> <path class="st5" d="M589.9,323.8c0,3-1.1,5.8-2.9,7.9c-0.4,0.5-0.9,1-1.4,1.4c-0.1,0.1-0.3,0.2-0.4,0.4 c-0.2,0.1-0.3,0.3-0.5,0.4c-1.6,1.1-3.5,1.9-5.6,2.2c-0.4,0-0.7,0.1-1.1,0.1c-0.1,0-0.3,0-0.4,0c-0.4,0-0.8,0-1.2-0.1 c-0.4,0-0.9-0.1-1.3-0.2c-1.9-0.4-3.6-1.2-5-2.3c-0.4-0.3-0.9-0.7-1.2-1.1c-0.1-0.1-0.2-0.2-0.2-0.2c-0.3-0.3-0.5-0.6-0.8-0.9 c-1.6-2.1-2.6-4.7-2.6-7.5c0-6.8,5.5-12.3,12.3-12.3C584.4,311.4,589.9,317,589.9,323.8z"></path> <g> <g> <path class="st22" d="M585.6,330.6l-0.9,3.3c-1.6,1.1-3.5,1.9-5.6,2.2c-0.4,0-0.7,0.1-1.1,0.1c-0.1,0-0.3,0-0.4,0 c-0.4,0-0.8,0-1.2-0.1c-0.4,0-0.9-0.1-1.3-0.2c-1.9-0.4-3.6-1.2-5-2.3c-0.2-1.1-0.4-2.3-0.5-3.4c0.9-0.3,3.8-1.3,5.6-1.9 c0,0,0,0,0.1,0c0,0,0.1,0,0.1,0c0.1,0,0.2-0.1,0.3-0.1c0.1,0,0.2-0.1,0.3-0.1c0.4-0.1,0.6-0.2,0.7-0.2c0,0,0,0,0,0 c0,0,0,0,0,0l0,0l2.4,0.2l0.4,0l0.1,0c0,0,0,0,0.1,0c0.1,0,0.6,0.2,1.1,0.3c0,0,0,0,0,0C582.4,328.7,584.7,329.5,585.6,330.6z "></path> </g> <g> <path class="st23" d="M578.2,317.6c0,0,2.9,0.5,2.4,5.1c-0.5,4.6-3.1,4.2-3.3,4.2c-0.2,0-2.6,0.1-2.7-5.6 C574.7,321.3,574.6,317.2,578.2,317.6z"></path> </g> <g> <path class="st23" d="M579.5,325.6c0,0-0.1,1.9,0.1,2.3c0.2,0.4-2.4,1.7-3.9,0.2c0,0,0.3-2.1,0.2-2.8 C575.8,324.6,579.5,325.6,579.5,325.6z"></path> </g> <g> <path class="st23" d="M580.7,321.4c0,0,0.3-0.3,0.4,0c0.1,0.3-0.5,1.9-0.5,2c0,0-0.1,0.1-0.1,0.1 C580.5,323.4,580.7,321.4,580.7,321.4z"></path> </g> <g> <path class="st23" d="M574.7,321.3c0,0-0.3-0.4-0.4,0c-0.1,0.3,0.3,1.9,0.4,2c0,0,0.1,0.2,0.2,0.1 C574.9,323.3,574.7,321.3,574.7,321.3z"></path> </g> <g> <path class="st24" d="M580.9,321c-0.1,0.6-0.2,1.1-0.2,1.1l-0.4,0.6c0,0,0-1.2,0-1.4c0-0.1-0.1-0.2-0.1-0.3 c0-0.2-0.1-0.5-0.1-0.6c-0.1-0.1-2.5-0.9-4.7,0.2c0,0,0,0.2,0,0.4c0,0.2,0,0.5-0.1,0.6c-0.2,0.1-0.1,1.4-0.1,1.4l-0.3-0.4 c0,0-0.1-0.7-0.2-1.5c0,0,0,0,0,0c0-0.2,0-0.4-0.1-0.6c0-0.8,0-2.3,1.1-3.2c0.7-0.3,1.9-0.6,3.8,0c0,0,0.4,0,0.6,0.1 C581.2,318.7,580.9,321,580.9,321z"></path> </g> <path class="st25" d="M576.1,326.3c0,0,0.5,0.6,1.6,0.6c1.1,0,1.6-0.6,1.6-0.6s-0.5,1.1-1.6,1.1 C576.6,327.4,576.1,326.3,576.1,326.3z"></path> <path class="st23" d="M575.4,328.1c0,0,0.8,1.4,2.3,1.5c0.9,0.1,1.8-1.1,2.2-1.7C579.8,327.9,577.7,327,575.4,328.1z"></path> <path class="st20" d="M579.5,327.5c0,0-0.6,0.8-1.9,1.6l0.8,1.2l1.4-2.4L579.5,327.5z"></path> <path class="st20" d="M575.7,327.7c0,0,0.8,1,1.9,1.4l-0.9,1.3l-1.5-2.2L575.7,327.7z"></path> <path class="st26" d="M577.6,329.1l0.7,1c0,0-0.7,0.4-1.4,0L577.6,329.1z"></path> <path class="st11" d="M586.4,330.4c0,0-0.7,2.7-0.8,2.7c-0.1,0.1-0.3,0.2-0.4,0.4c-0.2,0.1-0.3,0.3-0.5,0.4 c-1.6,1.1-3.5,1.9-5.6,2.2c0.2-4.3,0.7-8,0.7-8c0.4,0.1,0.8,0.2,1.1,0.3c0,0,0,0,0,0C582.2,328.6,585.2,329.6,586.4,330.4z"></path> <path class="st11" d="M575.1,335.8c-1.9-0.4-3.6-1.2-5-2.3c-0.4-0.3-0.9-0.7-1.2-1.1c-0.1-0.1-0.2-0.2-0.2-0.2 c-0.2-0.9-0.4-1.5-0.4-1.6v0c0,0,1.5-1,6.9-2.4c0,0,0,0,0,0C575.2,328.3,575.2,331.8,575.1,335.8z"></path> <path class="st26" d="M578,330.3c0,1.1-0.1,3.3,0,5.8c-0.1,0-0.3,0-0.4,0c-0.4,0-0.8,0-1.2-0.1c0.2-3.1,0.6-5,0.8-5.7 c0.1-0.2,0.1-0.4,0.1-0.4l0.7,0.1C578,330.1,578,330.2,578,330.3z"></path> <g> <path class="st11" d="M587,331.7c-0.4,0.5-0.9,1-1.4,1.4c-0.1,0.1-0.3,0.2-0.4,0.4c0,0,1.2-3.1,1.2-3.1 C586.7,330.5,586.9,331.4,587,331.7z"></path> </g> <g> <path class="st11" d="M568.8,332.4c-0.1-0.1-0.2-0.2-0.2-0.2c-0.3-0.3-0.5-0.6-0.8-0.9c0.1-0.3,0.3-0.6,0.4-0.6v0L568.8,332.4 z"></path> </g> </g> </g> </g> <g> <path class="st44" d="M524.7,306.1c-0.8,0-1.5-0.7-1.5-1.5v-20.9c0-0.8,0.7-1.5,1.5-1.5c0.8,0,1.5,0.7,1.5,1.5v20.9 C526.2,305.4,525.5,306.1,524.7,306.1z"></path> </g> <g> <path class="st44" d="M535.1,295.7h-20.9c-0.8,0-1.5-0.7-1.5-1.5c0-0.8,0.7-1.5,1.5-1.5h20.9c0.8,0,1.5,0.7,1.5,1.5 C536.7,295,536,295.7,535.1,295.7z"></path> </g> </g> </g> <g> </g> <g> </g> <g> </g> <g> </g> <g> </g> <g> </g> </svg> 