<?xml version="1.0" encoding="UTF-8"?> <!-- Generator: Adobe Illustrator 21.0.2, SVG Export Plug-In . SVG Version: 6.00 Build 0) --> <svg xmlns="http://www.w3.org/2000/svg" xmlns:xlink="http://www.w3.org/1999/xlink" id="OBJECTS" x="0px" y="0px" viewBox="0 0 293.3 287" style="enable-background:new 0 0 293.3 287;" xml:space="preserve"> <style type="text/css"> .st0{clip-path:url(#SVGID_2_);} .st1{clip-path:url(#SVGID_4_);fill:#5ABF4E;} .st2{clip-path:url(#SVGID_4_);fill:#00C4BF;} .st3{clip-path:url(#SVGID_4_);fill:#FF783F;} .st4{clip-path:url(#SVGID_4_);fill:#FF80CC;} .st5{clip-path:url(#SVGID_4_);fill:#33A623;} .st6{fill:#00CDC4;} .st7{clip-path:url(#SVGID_6_);fill:#65547D;} .st8{fill:#026591;} .st9{clip-path:url(#SVGID_8_);fill:#FA503C;} .st10{fill:#71D2E2;} .st11{fill:#0099B2;} .st12{fill:#FFCB00;} .st13{fill:#E6AF00;} .st14{fill:#FFE677;} .st15{fill:#FFFFFC;} .st16{fill:#FFC700;} .st17{fill:#FCB000;} .st18{fill:#FF7500;} .st19{fill:#FF8C1E;} .st20{clip-path:url(#SVGID_10_);} .st21{fill:#D35700;} .st22{fill:#0080BB;} .st23{fill:#FFFFFF;} .st24{fill:#0091CB;} .st25{fill:#009DB7;} .st26{fill:#FFAE18;} .st27{fill:#D71558;} .st28{fill:#F8DF9C;} .st29{fill:#FCC198;} .st30{fill:#FFA65F;} .st31{clip-path:url(#SVGID_12_);fill:#00CDC4;} .st32{clip-path:url(#SVGID_12_);fill:#C8D963;} .st33{clip-path:url(#SVGID_12_);fill:#FF783F;} .st34{clip-path:url(#SVGID_12_);fill:#FF3D2F;} .st35{clip-path:url(#SVGID_12_);fill:#0095AD;} .st36{fill:#FF80CC;} .st37{opacity:0.32;fill:#B5B5B5;} .st38{fill:#E2E2E2;} .st39{fill:#00C666;} .st40{fill:#F5E259;} .st41{fill:#38A9C4;} .st42{fill:#F6599E;} .st43{fill:#EEEEEE;} .st44{fill:#F8E391;} .st45{fill-rule:evenodd;clip-rule:evenodd;fill:#FFA65F;} .st46{fill-rule:evenodd;clip-rule:evenodd;fill:#F48E48;} </style> <g> <g> <g> <g> <g> <g> <defs> <polygon id="SVGID_1_" points="330.1,-98.7 330.1,287 330.1,287 -261.4,287 -261.4,-98.7 -261.4,-98.7 "></polygon> </defs> <clipPath id="SVGID_2_"> <use xlink:href="#SVGID_1_" style="overflow:visible;"></use> </clipPath> <g class="st0"> <g> <defs> <path id="SVGID_3_" d="M187,117.7c0,0,19.1-22.8,37-15.7c20.3,8,8.3,25.9-4.6,21.9C206.5,119.9,200.8,110.9,187,117.7z"></path> </defs> <clipPath id="SVGID_4_"> <use xlink:href="#SVGID_3_" style="overflow:visible;"></use> </clipPath> <path class="st1" d="M187,117.7c0,0,19.1-22.8,37-15.7c20.3,8,8.3,25.9-4.6,21.9C206.5,119.9,200.8,110.9,187,117.7z"></path> <ellipse transform="matrix(0.3185 -0.9479 0.9479 0.3185 51.5856 281.0501)" class="st2" cx="221.3" cy="104.6" rx="12.9" ry="12.9"></ellipse> <ellipse transform="matrix(0.3185 -0.9479 0.9479 0.3185 52.0458 281.2934)" class="st3" cx="221.7" cy="104.4" rx="8.2" ry="8.2"></ellipse> <ellipse transform="matrix(0.3714 -0.9285 0.9285 0.3714 43.0865 270.9684)" class="st4" cx="221.7" cy="103.7" rx="5" ry="5"></ellipse> <path class="st5" d="M201.8,111.1c-0.4-2-0.4-3.9-0.1-5.7c-8.5,5-14.6,12.3-14.6,12.3c7-3.5,11.9-2.8,16.8-0.9 C202.9,115,202.2,113.1,201.8,111.1z"></path> </g> <g> <path class="st6" d="M56.5,201.6c20.8,2.6,44.6-9.3,47.9-11l-6.2-12c-9.8,5-37.9,15.8-50.7,5.5c-9.5-7.7-10.2-27.2-2.2-56.5 l-13-3.6c-9.9,35.8-7.7,58.9,6.7,70.6C44.2,198.7,50.3,200.8,56.5,201.6z"></path> </g> <g> <path class="st6" d="M281.3,225.9c-14.3-14.9-42.6-18.2-46.6-18.6l-4.6,14.9c11.7,1.2,42.5,8.1,44.4,25.4 c1.4,12.9-13.6,31.6-43.2,54.1l7.4,11.2c36.3-27.5,52.9-50.4,50.8-70C288.8,236,285.7,230.4,281.3,225.9z"></path> </g> <path class="st6" d="M247.7,327.5c5-116.5-21.2-172.4-45.5-199.1c0,0,0,0-0.1,0c-7.6,4.9-15.9,9-24.9,10.2 c-8,1.1-16.3-0.1-24.1-1.5c-10.9-2-22.6-5.7-30.2-13.4c-0.3,0.2-0.5,0.4-0.8,0.7c-45.7,41.8-62.6,137.9-68.5,186.9 c-2.6,21.9,5.9,43.7,22.7,57.9C121,407,171.4,399,205.5,386C229.9,376.7,246.5,353.7,247.7,327.5z"></path> <path class="st6" d="M247.7,327.5c2.5-56.8-2.5-99.2-11.1-130.9c-0.1,3.1-0.2,6.3-0.4,9.4c-2,35.8-5.9,72.3-25.9,103.1 c-9.3,14.3-21.3,26.2-37.1,33c-14.9,6.5-31.5,8.3-47.6,7.5c-14.7-0.8-29.4-4.2-41.9-12.5c-10.5-7-18.4-17.2-24-28.4 c-1.7-3.3-3.1-6.7-4.4-10.2c-0.6,4.5-1.2,8.7-1.6,12.7c-2.6,21.9,5.9,43.7,22.7,57.9C121,407,171.4,399,205.5,386 C229.9,376.7,246.5,353.7,247.7,327.5z"></path> <g> <defs> <path id="SVGID_5_" d="M200.6,126.8c24.7,26,52.2,81.8,47,200.7c-1.1,26.2-17.7,49.2-42.2,58.5c-34,13-84.5,21-129.2-16.9 c-16.8-14.2-25.3-36-22.7-57.9c5.8-49,22.7-145,68.5-186.9C144.7,103.6,179.5,104.5,200.6,126.8z"></path> </defs> <clipPath id="SVGID_6_"> <use xlink:href="#SVGID_5_" style="overflow:visible;"></use> </clipPath> <path class="st7" d="M68.7,371.8c0,0,21.8-139.7,91.5-131c70.8,8.8,56.5,151.8,56.5,151.8S119.2,424.3,68.7,371.8z"></path> </g> <ellipse transform="matrix(0.123 -0.9924 0.9924 0.123 -36.7925 286.7507)" class="st8" cx="143.8" cy="164.2" rx="8.5" ry="2.4"></ellipse> <ellipse transform="matrix(0.123 -0.9924 0.9924 0.123 -10.5211 325.1141)" class="st8" cx="178.7" cy="168.5" rx="8.5" ry="2.4"></ellipse> <g> <g> <path class="st8" d="M170.5,179.9c-6.8,1.9-14,0.9-19.8-3.2c-0.1-0.1-0.2-0.1-0.3-0.2c-9.2-6.5-20.2,8.1-9.1,18.8 c11.1,10.8,29.8,11.7,39.2,2.4C188.9,189.6,183.7,176.2,170.5,179.9z"></path> <g> <defs> <path id="SVGID_7_" d="M170.5,179.9c-6.8,1.9-14,0.9-19.8-3.2c-0.1-0.1-0.2-0.1-0.3-0.2c-9.2-6.5-20.2,8.1-9.1,18.8 c11.1,10.8,29.8,11.7,39.2,2.4C188.9,189.6,183.7,176.2,170.5,179.9z"></path> </defs> <clipPath id="SVGID_8_"> <use xlink:href="#SVGID_7_" style="overflow:visible;"></use> </clipPath> <path class="st9" d="M141.3,195.8c0,0,0.2-11.7,17.4-0.4c0,0,16.3-7.3,19.2,4.9C177.9,200.3,161.4,213.2,141.3,195.8z"></path> </g> </g> </g> <path class="st6" d="M223.4,192.4c-0.8,10.9-10.8,18.7-21.5,16.8c-9.2-1.6-15.8-10.1-15.1-19.4c0.8-10.9,10.8-18.7,21.5-16.8 C217.5,174.7,224.1,183.1,223.4,192.4z"></path> <path class="st6" d="M135.5,181.6c-0.8,10.9-10.8,18.7-21.5,16.8c-9.2-1.6-15.8-10.1-15.1-19.4c0.8-10.9,10.8-18.7,21.5-16.8 C129.6,163.8,136.2,172.2,135.5,181.6z"></path> <ellipse transform="matrix(0.123 -0.9924 0.9924 0.123 -68.7797 339.7364)" class="st10" cx="157.8" cy="208.8" rx="1.5" ry="3.2"></ellipse> <path class="st11" d="M122.8,123.7c0,0,30.2-14.1,79.4,4.7C202.2,128.4,167,160,122.8,123.7z"></path> <path class="st6" d="M127,126.6c0,0,22.1-11.4,71.7,4.1C198.7,130.8,172.2,154.8,127,126.6z"></path> <g> <path class="st12" d="M166.8,120.3c0,0,14-54-17.5-64.8c-31.6-10.8-47.8,14.5-39,33C125.5,120.6,161.3,71.5,166.8,120.3z"></path> <path class="st13" d="M167.4,80.7c-2.3,3.9-5.9,6.5-9.7,8.7c-5,2.9-10.5,5.1-16,7c-3.4,1.2-6.7,2.4-10.1,3.6 c15.2-1.8,31.6-11.5,35.2,20.3c0,0,5.8-22.5,1.5-41.4C168,79.6,167.7,80.1,167.4,80.7z"></path> <path class="st14" d="M115.2,75.9c5-3.3,10.1-6.4,14.9-10.1c4.3-3.4,7.6-6.3,10.4-10.8c0.2-0.3,0.4-0.7,0.6-1 c0-0.1,0.1-0.2,0.1-0.2c0-0.1,0.1-0.2,0.1-0.2c-22.3-3.7-34.9,11.8-33.4,26.9C110.5,79,112.9,77.5,115.2,75.9z"></path> <ellipse transform="matrix(0.9881 -0.1538 0.1538 0.9881 -10.1278 21.4061)" class="st15" cx="133.3" cy="76.1" rx="16.3" ry="16.3"></ellipse> <g> <ellipse transform="matrix(0.9881 -0.1538 0.1538 0.9881 -9.5397 21.334)" class="st16" cx="133.1" cy="72.3" rx="1.8" ry="4.3"></ellipse> <path class="st16" d="M138.4,75.2c-2,1.5-4.1,2.2-4.7,1.5c-0.6-0.7,0.5-2.5,2.4-4c2-1.5,4.1-2.2,4.7-1.5 C141.5,71.9,140.4,73.7,138.4,75.2z"></path> <path class="st16" d="M137.2,79.7c-2.4-0.8-4-2.1-3.6-3c0.4-0.9,2.6-1,4.9-0.2c2.4,0.8,4,2.1,3.6,3 C141.8,80.4,139.6,80.5,137.2,79.7z"></path> <path class="st16" d="M132.5,81.1c-0.4-2.3,0-4.3,1-4.5c1-0.2,2.1,1.6,2.6,3.9c0.4,2.3,0,4.3-1,4.5 C134.1,85.2,132.9,83.4,132.5,81.1z"></path> <path class="st16" d="M128.9,78c1.9-1.6,4-2.3,4.7-1.6c0.6,0.7-0.4,2.5-2.3,4.1c-1.9,1.6-4,2.3-4.7,1.6 C125.9,81.4,127,79.6,128.9,78z"></path> <path class="st16" d="M130,73.5c2.4,0.7,4,2,3.7,2.9c-0.3,0.9-2.5,1-4.9,0.3c-2.4-0.7-4-2-3.7-2.9 C125.4,72.9,127.6,72.8,130,73.5z"></path> <ellipse transform="matrix(0.9881 -0.1538 0.1538 0.9881 -10.1529 21.4853)" class="st17" cx="133.8" cy="76.4" rx="1.5" ry="1.4"></ellipse> </g> <g> <ellipse transform="matrix(0.9881 -0.1538 0.1538 0.9881 -8.9969 19.9653)" class="st16" cx="124.5" cy="68.1" rx="0.4" ry="1.1"></ellipse> <path class="st16" d="M125.8,68.8c-0.5,0.4-1,0.5-1.2,0.4c-0.2-0.2,0.1-0.6,0.6-1c0.5-0.4,1-0.5,1.2-0.4 S126.3,68.5,125.8,68.8z"></path> <path class="st16" d="M125.5,70c-0.6-0.2-1-0.5-0.9-0.8c0.1-0.2,0.6-0.2,1.2,0c0.6,0.2,1,0.5,0.9,0.8 C126.7,70.1,126.1,70.1,125.5,70z"></path> <ellipse transform="matrix(0.9842 -0.1772 0.1772 0.9842 -10.4681 23.2243)" class="st16" cx="124.8" cy="70.2" rx="0.4" ry="1.1"></ellipse> <path class="st16" d="M123.5,69.5c0.5-0.4,1-0.6,1.2-0.4c0.2,0.2-0.1,0.6-0.6,1c-0.5,0.4-1,0.6-1.2,0.4 C122.7,70.4,123,69.9,123.5,69.5z"></path> <path class="st16" d="M123.7,68.4c0.6,0.2,1,0.5,0.9,0.7c-0.1,0.2-0.6,0.3-1.2,0.1c-0.6-0.2-1-0.5-0.9-0.7 C122.6,68.3,123.1,68.2,123.7,68.4z"></path> <ellipse transform="matrix(0.9881 -0.1538 0.1538 0.9881 -9.1461 19.994)" class="st17" cx="124.7" cy="69.1" rx="0.4" ry="0.3"></ellipse> </g> <g> <ellipse transform="matrix(0.9881 -0.1539 0.1539 0.9881 -8.4073 22.4949)" class="st16" cx="141.1" cy="65.5" rx="0.4" ry="1.1"></ellipse> <path class="st16" d="M142.4,66.3c-0.5,0.4-1,0.5-1.2,0.4c-0.2-0.2,0.1-0.6,0.6-1c0.5-0.4,1-0.5,1.2-0.4 C143.1,65.4,142.9,65.9,142.4,66.3z"></path> <path class="st16" d="M142.1,67.4c-0.6-0.2-1-0.5-0.9-0.8c0.1-0.2,0.6-0.2,1.2,0c0.6,0.2,1,0.5,0.9,0.8 C143.2,67.6,142.7,67.6,142.1,67.4z"></path> <ellipse transform="matrix(0.9842 -0.1773 0.1773 0.9842 -9.7531 26.13)" class="st16" cx="141.3" cy="67.6" rx="0.4" ry="1.1"></ellipse> <path class="st16" d="M140,67c0.5-0.4,1-0.6,1.2-0.4c0.2,0.2-0.1,0.6-0.6,1c-0.5,0.4-1,0.6-1.2,0.4 C139.3,67.8,139.5,67.3,140,67z"></path> <path class="st16" d="M140.3,65.8c0.6,0.2,1,0.5,0.9,0.7c-0.1,0.2-0.6,0.3-1.2,0.1c-0.6-0.2-1-0.5-0.9-0.7 C139.1,65.7,139.7,65.6,140.3,65.8z"></path> <ellipse transform="matrix(0.9881 -0.1539 0.1539 0.9881 -8.5588 22.5292)" class="st17" cx="141.2" cy="66.5" rx="0.4" ry="0.3"></ellipse> </g> <g> <ellipse transform="matrix(0.9881 -0.1538 0.1538 0.9881 -11.4175 22.7211)" class="st16" cx="141.1" cy="85.1" rx="0.4" ry="1.1"></ellipse> <path class="st16" d="M142.4,85.9c-0.5,0.4-1,0.5-1.2,0.4c-0.2-0.2,0.1-0.6,0.6-1c0.5-0.4,1-0.5,1.2-0.4 C143.2,85,142.9,85.5,142.4,85.9z"></path> <path class="st16" d="M142.1,87c-0.6-0.2-1-0.5-0.9-0.8c0.1-0.2,0.6-0.2,1.2,0c0.6,0.2,1,0.5,0.9,0.8 C143.3,87.2,142.7,87.2,142.1,87z"></path> <ellipse transform="matrix(0.9842 -0.1772 0.1772 0.9842 -13.2213 26.4346)" class="st16" cx="141.4" cy="87.2" rx="0.4" ry="1.1"></ellipse> <path class="st16" d="M140.1,86.6c0.5-0.4,1-0.6,1.2-0.4c0.2,0.2-0.1,0.6-0.6,1c-0.5,0.4-1,0.6-1.2,0.4 C139.3,87.4,139.6,86.9,140.1,86.6z"></path> <path class="st16" d="M140.3,85.4c0.6,0.2,1,0.5,0.9,0.7c-0.1,0.2-0.6,0.3-1.2,0.1c-0.6-0.2-1-0.5-0.9-0.7 C139.2,85.3,139.7,85.3,140.3,85.4z"></path> <ellipse transform="matrix(0.9881 -0.1538 0.1538 0.9881 -11.5669 22.7511)" class="st17" cx="141.3" cy="86.1" rx="0.4" ry="0.3"></ellipse> </g> <g> <ellipse transform="matrix(0.9881 -0.1538 0.1538 0.9881 -11.9013 21.119)" class="st16" cx="130.5" cy="87.5" rx="0.4" ry="1.1"></ellipse> <path class="st16" d="M131.8,88.2c-0.5,0.4-1,0.5-1.2,0.4c-0.2-0.2,0.1-0.6,0.6-1c0.5-0.4,1-0.5,1.2-0.4 C132.6,87.3,132.3,87.8,131.8,88.2z"></path> <path class="st16" d="M131.5,89.3c-0.6-0.2-1-0.5-0.9-0.8c0.1-0.2,0.6-0.2,1.2,0c0.6,0.2,1,0.5,0.9,0.8 C132.7,89.5,132.1,89.5,131.5,89.3z"></path> <ellipse transform="matrix(0.9842 -0.1772 0.1772 0.9842 -13.8009 24.5943)" class="st16" cx="130.8" cy="89.6" rx="0.4" ry="1.1"></ellipse> <path class="st16" d="M129.5,88.9c0.5-0.4,1-0.6,1.2-0.4c0.2,0.2-0.1,0.6-0.6,1c-0.5,0.4-1,0.6-1.2,0.4 C128.7,89.7,129,89.3,129.5,88.9z"></path> <path class="st16" d="M129.7,87.8c0.6,0.2,1,0.5,0.9,0.7c-0.1,0.2-0.6,0.3-1.2,0.1c-0.6-0.2-1-0.5-0.9-0.7 C128.6,87.6,129.1,87.6,129.7,87.8z"></path> <ellipse transform="matrix(0.9881 -0.1536 0.1536 0.9881 -12.0391 21.1253)" class="st17" cx="130.7" cy="88.5" rx="0.4" ry="0.3"></ellipse> </g> </g> <g> <path class="st18" d="M178,114.6c0,0,26.2-14,22.9-33c-3.7-21.6-23.7-13.4-22.4,0C179.9,95,187.5,102.5,178,114.6z"></path> <path class="st19" d="M180.5,110.9c20.6-7.3,10-35.6,8.8-42.6c-5.8,0.2-11.4,6-10.7,13.3C179.8,93.6,186,100.9,180.5,110.9z "></path> <g> <defs> <path id="SVGID_9_" d="M178,114.6c0,0,26.2-14,22.9-33c-3.7-21.6-23.7-13.4-22.4,0C179.9,95,187.5,102.5,178,114.6z"></path> </defs> <clipPath id="SVGID_10_"> <use xlink:href="#SVGID_9_" style="overflow:visible;"></use> </clipPath> <g class="st20"> <g> <path class="st21" d="M187.4,66.8c0,0.8,3.2,8.3,1.4,3.5c0.9,2.3,1.6,4.6,2.2,7c1.1,4.7,1.6,9.5,1.3,14.4 c-0.8,10.1-6.5,20.9-16.9,23.8c-0.7,0.2-0.4,1.4,0.3,1.2c8.3-2.4,14.8-10.3,16.8-18.5c1.3-5.1,1.4-10.5,0.8-15.7 c-0.4-2.7-1-5.5-1.7-8.1c-0.6-1.9-2.9-5.6-2.9-7.6C188.6,66,187.4,66,187.4,66.8L187.4,66.8z"></path> </g> </g> <g class="st20"> <g> <path class="st21" d="M177.2,75.7c-2.8,3.7-1.2,7,3.2,8c5.8,1.4,10.2-1.7,11.7-7.2c-0.4,0-0.7,0.1-1.1,0.1 c1.9,2.6,4.8,3.7,7.8,2.3c3.8-1.8,4.6-5.9,3.6-9.7c-0.2-0.7-1.3-0.4-1.2,0.3c1.1,2.5,0.7,4.5-1.1,6.2 c-1.5,3.3-4.2,3.4-8.1,0.3c-0.3-0.4-1-0.4-1.1,0.1c-0.9,3.3-4.6,6.6-8.1,6.6c-3.2,0-7.2-3.2-4.6-6.5 C178.7,75.7,177.6,75.1,177.2,75.7L177.2,75.7z"></path> </g> </g> <g class="st20"> <g> <path class="st21" d="M176.7,88c1.2,8.5,14.8,9.2,16.9,0.8c-0.4-0.1-0.8-0.1-1.2-0.2c0.4,3,2.9,5,6,4.7 c4.5-0.6,6-5.2,5.9-9.1c0-0.8-1.2-0.8-1.2,0c0.2,1.4-0.1,2.8-1,4c-0.8,4.3-3.6,4.4-8.5,0.4c-0.1-0.6-1-0.9-1.2-0.2 c-0.9,3.7-4.4,5.9-8.2,4.9c-2.8-0.7-6-2.7-6.4-5.7C177.7,86.9,176.6,87.2,176.7,88L176.7,88z"></path> </g> </g> <g class="st20"> <g> <path class="st21" d="M180,97.3c-1.4,2.8-0.3,6,2.8,7.2c3.6,1.3,6.7-0.9,8.8-3.6c-0.3-0.1-0.7-0.3-1-0.4 c0.6,4.9,5.3,4.3,8.3,1.7c0.6-0.5-0.3-1.4-0.8-0.8c-1.8,2.2-3.9,1.9-6.3-0.8c0-0.4-0.7-0.9-1-0.4c-0.9,1.1-1.7,2-3,2.7 c-2.5,1.4-9.7,1-6.7-4.9C181.4,97.3,180.3,96.6,180,97.3L180,97.3z"></path> </g> </g> <g class="st20"> <g> <path class="st21" d="M178.7,107.6c-0.3,1.5,0.6,2.9,2.1,3.3c1.9,0.6,3.9-0.1,5.5-1.2c0.6-0.5,0-1.5-0.6-1 c-0.9,0.7-1.8,1.1-2.9,1.2c-1.2,0.1-3.2-0.3-2.9-2C180,107.2,178.9,106.9,178.7,107.6L178.7,107.6z"></path> </g> </g> </g> </g> <ellipse transform="matrix(0.123 -0.9924 0.9924 0.123 102.119 289.1177)" class="st22" cx="214.6" cy="86.8" rx="11.1" ry="11.1"></ellipse> <ellipse transform="matrix(0.123 -0.9924 0.9924 0.123 113.2331 178.5046)" class="st23" cx="157.6" cy="25.2" rx="6.8" ry="6.8"></ellipse> <ellipse transform="matrix(0.123 -0.9924 0.9924 0.123 126.2048 192.224)" class="st23" cx="171.9" cy="24.7" rx="2.8" ry="2.8"></ellipse> <ellipse transform="matrix(0.8375 -0.5464 0.5464 0.8375 10.6141 97.2432)" class="st23" cx="168.8" cy="30.8" rx="2.7" ry="2.7"></ellipse> <ellipse transform="matrix(0.123 -0.9924 0.9924 0.123 105.2137 283.0861)" class="st24" cx="212.8" cy="82" rx="4.3" ry="4.3"></ellipse> <g> <ellipse transform="matrix(0.123 -0.9924 0.9924 0.123 115.1053 259.8825)" class="st16" cx="204.6" cy="64.8" rx="4" ry="1.7"></ellipse> <path class="st16" d="M208.6,68.7c-2.1,0.9-4.2,0.9-4.6,0.1c-0.4-0.8,1.1-2.1,3.2-3c2.1-0.9,4.2-0.9,4.6-0.1 C212.2,66.6,210.7,67.9,208.6,68.7z"></path> <path class="st16" d="M206.4,72.5c-1.9-1.3-3-2.9-2.5-3.6c0.5-0.7,2.5-0.2,4.4,1.1c1.9,1.3,3,2.9,2.5,3.6 C210.3,74.3,208.3,73.8,206.4,72.5z"></path> <path class="st16" d="M201.8,72.5c0.2-2.2,1.1-3.9,2.1-3.8c0.9,0.1,1.5,1.9,1.3,4.1c-0.2,2.2-1.1,3.9-2.1,3.8 C202.2,76.5,201.6,74.7,201.8,72.5z"></path> <path class="st16" d="M199.4,68.8c2.1-0.9,4.2-1,4.6-0.2c0.4,0.8-1,2.2-3.1,3.1c-2.1,0.9-4.2,1-4.6,0.2 C195.8,71.1,197.2,69.7,199.4,68.8z"></path> <path class="st16" d="M201.5,65.1c1.9,1.3,3.1,2.9,2.6,3.6c-0.5,0.7-2.5,0.3-4.5-1c-1.9-1.3-3.1-2.9-2.6-3.6 C197.5,63.4,199.5,63.8,201.5,65.1z"></path> <ellipse transform="matrix(0.123 -0.9924 0.9924 0.123 110.9781 262.7468)" class="st17" cx="204.1" cy="68.6" rx="1.3" ry="1.4"></ellipse> </g> <g> <ellipse transform="matrix(0.123 -0.9924 0.9924 0.123 120.3615 248.3509)" class="st16" cx="200.7" cy="56.1" rx="2.1" ry="0.9"></ellipse> <path class="st16" d="M202.8,58.1c-1.1,0.4-2.2,0.5-2.4,0.1c-0.2-0.4,0.6-1.1,1.7-1.6c1.1-0.4,2.2-0.5,2.4-0.1 C204.7,57,203.9,57.7,202.8,58.1z"></path> <path class="st16" d="M201.6,60.1c-1-0.7-1.6-1.5-1.3-1.9c0.3-0.4,1.3-0.1,2.3,0.6c1,0.7,1.6,1.5,1.3,1.9 C203.7,61,202.6,60.7,201.6,60.1z"></path> <ellipse transform="matrix(9.944165e-02 -0.995 0.995 9.944165e-02 120.3367 253.3102)" class="st16" cx="200.1" cy="60.2" rx="2.1" ry="0.9"></ellipse> <path class="st16" d="M198,58.2c1.1-0.5,2.2-0.5,2.4-0.1c0.2,0.4-0.5,1.1-1.6,1.6c-1.1,0.5-2.2,0.5-2.4,0.1 C196.1,59.4,196.9,58.6,198,58.2z"></path> <path class="st16" d="M199.1,56.2c1,0.7,1.6,1.5,1.3,1.9c-0.3,0.4-1.3,0.1-2.3-0.5c-1-0.7-1.6-1.5-1.3-1.9 C197,55.3,198.1,55.5,199.1,56.2z"></path> <ellipse transform="matrix(0.1229 -0.9924 0.9924 0.1229 118.225 249.8559)" class="st17" cx="200.5" cy="58" rx="0.7" ry="0.7"></ellipse> </g> <path class="st10" d="M122.6,123.7c0,0,37.7,40.8,79.8,4.7C202.4,128.4,167.2,147.3,122.6,123.7z"></path> <path class="st25" d="M31.4,127.9c0,0-2.5-5.2-0.7-21.9l21.8,6.7C52.5,112.7,50.1,129.4,31.4,127.9z"></path> <g> <rect x="38.5" y="78.9" transform="matrix(-0.1157 -0.9933 0.9933 -0.1157 -61.0231 168.4451)" class="st26" width="11.9" height="65"></rect> <path class="st27" d="M78.8,113.4c0,0,5-0.1,4.5-6.5c-0.6-6.4-5.8-5.3-5.8-5.3S78.8,113.4,78.8,113.4z"></path> <rect x="71.4" y="106.8" transform="matrix(-0.1157 -0.9933 0.9933 -0.1157 -20.5089 196.8854)" class="st28" width="11.9" height="1.5"></rect> <polygon class="st29" points="12.9,121 2.1,116.1 11.5,109.2 14.4,111.1 12.5,113.4 14.8,115.2 13.2,117.3 15.3,119 "></polygon> <polygon class="st8" points="7.5,118.6 2.1,116.1 6.7,112.7 8.7,115.5 "></polygon> </g> <path class="st6" d="M42.8,130.5c0,0,24.6-8.6,10.2-24.1c0,0-9.6-9.6-6.7,1.3c1.9,7.1,1,13.6-15.5,15.9 C30.7,123.6,29.1,133.8,42.8,130.5z"></path> <path class="st6" d="M42.5,112.6L42.5,112.6c-1.9,0.7-4-0.4-4.7-2.3l-3.8-11c-0.7-1.9,0.4-4,2.3-4.7l0,0 c1.9-0.7,4,0.4,4.7,2.3l3.8,11C45.5,109.8,44.5,111.9,42.5,112.6z"></path> <g> <g> <path class="st30" d="M200.3,29.8l-2.2,1.1c0.8,1.6,1.5,3.4,2.1,5l2.3-0.8C201.9,33.3,201.2,31.6,200.3,29.8z"></path> <path class="st30" d="M196.1,22.4l-2,1.4c1,1.5,2,3.1,2.9,4.7l2.1-1.2C198.2,25.7,197.2,24,196.1,22.4z"></path> <path class="st30" d="M190.6,15.8l-1.7,1.8c1.3,1.3,2.5,2.6,3.6,4.1l1.9-1.5C193.3,18.6,191.9,17.2,190.6,15.8z"></path> <path class="st30" d="M183.7,10.5l-1.2,2.2c1.5,0.9,3,2,4.4,3.2l1.5-1.9C187,12.6,185.4,11.5,183.7,10.5z"></path> <path class="st30" d="M175.7,7.2l-0.6,2.4c1.7,0.5,3.5,1,5.1,1.8l1-2.3C179.5,8.3,177.6,7.7,175.7,7.2z"></path> <path class="st30" d="M167.1,6.5l0,2.5c1.8-0.1,3.6,0,5.4,0.2l0.4-2.4C171,6.5,169.1,6.4,167.1,6.5z"></path> <path class="st30" d="M158.6,8l0.6,2.4c0.9-0.3,1.7-0.5,2.6-0.7c0.9-0.2,1.8-0.3,2.7-0.5l-0.2-2.4c-1,0.1-1.9,0.3-2.9,0.5 C160.5,7.5,159.5,7.7,158.6,8z"></path> </g> <g> <path class="st30" d="M150.6,11.3l1.2,2.1l2.4-1.2l2.5-1l-0.8-2.3c-0.9,0.4-1.8,0.7-2.7,1.1L150.6,11.3z"></path> <path class="st30" d="M143.7,16.7l1.8,1.7c0.3-0.3,0.6-0.6,0.9-0.9l1-0.9c0.7-0.6,1.4-1.1,2.1-1.6l-1.4-2 c-0.8,0.6-1.6,1.2-2.3,1.8l-1.1,1C144.4,16,144,16.3,143.7,16.7z"></path> <path class="st30" d="M139.1,24.1l2.3,0.9l0.5-1.2l0.3-0.6c0.1-0.2,0.2-0.4,0.3-0.6l0.7-1.2c0.2-0.4,0.5-0.7,0.8-1.1 l-2-1.4c-0.3,0.4-0.6,0.8-0.8,1.2l-0.7,1.3c-0.1,0.2-0.2,0.4-0.4,0.6l-0.3,0.7L139.1,24.1z"></path> <path class="st30" d="M137.3,32.7l2.4,0.1c0.1-0.9,0.1-1.8,0.3-2.7c0.1-0.4,0.1-0.9,0.2-1.3l0.3-1.3l-2.4-0.6l-0.4,1.4 c-0.1,0.5-0.2,1-0.2,1.4C137.4,30.7,137.4,31.7,137.3,32.7z"></path> <path class="st30" d="M137.7,41.3l2.4-0.4c-0.3-1.8-0.5-3.6-0.5-5.4l-2.4,0C137.2,37.4,137.5,39.4,137.7,41.3z"></path> <path class="st30" d="M139.8,49.6l2.3-0.7c-0.6-1.7-1.1-3.5-1.4-5.3l-2.4,0.5C138.7,45.9,139.2,47.7,139.8,49.6z"></path> <path class="st30" d="M142.9,57.5l2.2-1c-0.8-1.7-1.5-3.4-2.1-5.1l-2.3,0.8C141.3,54,142.1,55.8,142.9,57.5z"></path> </g> </g> <path class="st6" d="M35.7,115L35.7,115c-1.9,0.7-4-0.4-4.7-2.3l-3.8-11c-0.7-1.9,0.4-4,2.3-4.7l0,0c1.9-0.7,4,0.4,4.7,2.3 l3.8,11C38.6,112.2,37.6,114.3,35.7,115z"></path> <g> <defs> <path id="SVGID_11_" d="M184.1,68c0,0-5.7-29.2,11.1-38.6c19.1-10.7,25.4,9.9,14.1,17.4C198.1,54.2,187.5,53.1,184.1,68z"></path> </defs> <use xlink:href="#SVGID_11_" style="overflow:visible;fill:#00CDC4;"></use> <clipPath id="SVGID_12_"> <use xlink:href="#SVGID_11_" style="overflow:visible;"></use> </clipPath> <path class="st31" d="M184.1,68c0,0-5.7-29.2,11.1-38.6c19.1-10.7,25.4,9.9,14.1,17.4C198.1,54.2,187.5,53.1,184.1,68z"></path> <ellipse transform="matrix(0.8442 -0.5361 0.5361 0.8442 12.6826 109.9756)" class="st32" cx="195.5" cy="33.2" rx="12.9" ry="12.9"></ellipse> <ellipse transform="matrix(0.8442 -0.5361 0.5361 0.8442 12.9307 109.9588)" class="st33" cx="195.6" cy="32.7" rx="8.2" ry="8.2"></ellipse> <ellipse transform="matrix(0.873 -0.4877 0.4877 0.873 9.0364 99.1899)" class="st34" cx="195" cy="32.2" rx="5" ry="5"></ellipse> <path class="st35" d="M188.3,52.4c-1.8-1-3.3-2.1-4.5-3.5c-1.5,9.8,0.4,19.1,0.4,19.1c1.7-7.6,5.3-11,9.9-13.6 C192,54,190.1,53.3,188.3,52.4z"></path> </g> <g> <path class="st12" d="M107.1,51.1c0,0,0.7-1.4,2.4-0.6c0.6,0.3,0.9,1.1,0.6,1.7c-0.8,2-3.3,6.5-9.1,8.2 c-0.5,0.2-1.1,0-1.4-0.4c-0.4-0.5-0.7-1.4,0.1-2.6L107.1,51.1z"></path> <g> <path class="st12" d="M92.5,32c0,0,7.1-4.7,17.1,5.6l-4.1,4.9L92.5,32z"></path> <path class="st12" d="M103,35.5c-2.6-1.9-6.3-3.5-9.7-3.9c-0.5,0.2-0.8,0.4-0.8,0.4l13,10.5l2.1-2.5 C106.3,38.3,104.8,36.8,103,35.5z"></path> </g> <g> <path class="st12" d="M82.3,41.7c0,0-5,6.9,4.8,17.3l5.1-3.8L82.3,41.7z"></path> <path class="st12" d="M85.3,52.4c-1.8-2.7-3.2-6.4-3.4-9.9c0.2-0.5,0.4-0.8,0.4-0.8l9.9,13.5l-2.6,2 C88,55.8,86.5,54.2,85.3,52.4z"></path> </g> <path class="st6" d="M81.4,30.8c0,0-2.9,12,7.6,22.4c10.5,10.4,16.6,2.9,16.6,2.9s7.8-5.8-2.1-16.7 C93.6,28.5,81.4,30.8,81.4,30.8z"></path> <path class="st6" d="M99.3,35.6c3.3,3.8,5.3,8.7,4.5,13.3c-0.6,3.5-3.8,7.2-7.5,9.2c6,2.1,9.4-2,9.4-2s7.8-5.8-2.1-16.7 C102.1,37.9,100.7,36.6,99.3,35.6z"></path> <path class="st12" d="M91.1,31.6c-5.5-1.5-9.6-0.8-9.6-0.8s-1.1,4.6,0.5,10.5C86.4,39.5,89.8,36,91.1,31.6z"></path> <g> <ellipse transform="matrix(0.7235 -0.6903 0.6903 0.7235 -4.26 76.959)" class="st23" cx="93.9" cy="43.8" rx="4.7" ry="4.7"></ellipse> <ellipse transform="matrix(0.7235 -0.6903 0.6903 0.7235 -4.2599 76.9594)" class="st8" cx="93.9" cy="43.8" rx="3.1" ry="3.1"></ellipse> </g> <ellipse transform="matrix(0.7235 -0.6903 0.6903 0.7235 -3.0183 74.2388)" class="st6" cx="91.2" cy="40.9" rx="0.4" ry="0.4"></ellipse> <ellipse transform="matrix(0.7236 -0.6902 0.6902 0.7236 -1.6028 75.633)" class="st6" cx="93.6" cy="39.8" rx="0.4" ry="0.4"></ellipse> <ellipse transform="matrix(0.7234 -0.6904 0.6904 0.7234 -1.4495 78.0834)" class="st6" cx="96.7" cy="40.9" rx="0.4" ry="0.4"></ellipse> <ellipse transform="matrix(0.7234 -0.6904 0.6904 0.7234 -3.3444 79.7817)" class="st6" cx="97.9" cy="44.1" rx="0.4" ry="0.4"></ellipse> <ellipse transform="matrix(0.7235 -0.6903 0.6903 0.7235 -5.5025 79.698)" class="st6" cx="96.7" cy="46.7" rx="0.4" ry="0.4"></ellipse> <ellipse transform="matrix(0.7235 -0.6903 0.6903 0.7235 -7.0816 77.8811)" class="st6" cx="93.7" cy="47.8" rx="0.4" ry="0.4"></ellipse> <ellipse transform="matrix(0.7235 -0.6903 0.6903 0.7235 -7.111 75.991)" class="st6" cx="91.3" cy="46.9" rx="0.4" ry="0.4"></ellipse> <ellipse transform="matrix(0.7235 -0.6904 0.6904 0.7235 -5.3378 74.2858)" class="st6" cx="90.1" cy="43.8" rx="0.4" ry="0.4"></ellipse> <ellipse transform="matrix(0.3812 -0.9245 0.9245 0.3812 18.5942 133.8333)" class="st12" cx="109.3" cy="53" rx="1" ry="2.6"></ellipse> <ellipse transform="matrix(0.7235 -0.6903 0.6903 0.7235 -9.8595 89.2313)" class="st12" cx="106.5" cy="56.9" rx="1" ry="2.6"></ellipse> <ellipse transform="matrix(0.9414 -0.3374 0.3374 0.9414 -14.1878 37.9719)" class="st12" cx="102.2" cy="59.8" rx="1" ry="2.6"></ellipse> </g> <polygon class="st14" points="217.4,62.4 218.6,64.7 221.1,65 219.3,66.8 219.7,69.4 217.4,68.2 215.2,69.4 215.6,66.8 213.8,65 216.3,64.7 "></polygon> <polygon class="st14" points="226.2,96.8 226.6,97.6 227.5,97.7 226.8,98.3 227,99.2 226.2,98.8 225.4,99.2 225.6,98.3 224.9,97.7 225.8,97.6 "></polygon> <polygon class="st14" points="109,111.7 110.2,114 112.7,114.4 110.9,116.2 111.3,118.7 109,117.5 106.8,118.7 107.2,116.2 105.4,114.4 107.9,114 "></polygon> <polygon class="st14" points="112.4,108.6 112.7,109.3 113.4,109.4 112.9,110 113,110.7 112.4,110.3 111.7,110.7 111.8,110 111.3,109.4 112,109.3 "></polygon> <polygon class="st14" points="109.9,122.1 110.3,123 111.3,123.1 110.6,123.8 110.7,124.7 109.9,124.3 109,124.7 109.2,123.8 108.5,123.1 109.4,123 "></polygon> <polygon class="st14" points="174.2,90.2 174.8,91.2 175.9,91.4 175.1,92.2 175.3,93.4 174.2,92.8 173.2,93.4 173.4,92.2 172.6,91.4 173.7,91.2 "></polygon> <polygon class="st14" points="180.8,36.2 181.9,38.5 184.5,38.8 182.6,40.6 183.1,43.1 180.8,41.9 178.5,43.1 179,40.6 177.1,38.8 179.7,38.5 "></polygon> <polygon class="st14" points="171.2,13.8 171.8,15.1 173.3,15.3 172.2,16.4 172.5,17.8 171.2,17.1 169.8,17.8 170.1,16.4 169,15.3 170.5,15.1 "></polygon> <circle class="st36" cx="228.6" cy="76" r="1.1"></circle> <circle class="st36" cx="230" cy="67.8" r="1.4"></circle> <circle class="st36" cx="135.1" cy="29.3" r="1.1"></circle> <circle class="st36" cx="136.5" cy="21" r="1.4"></circle> <circle class="st36" cx="223.4" cy="57" r="1.5"></circle> <circle class="st36" cx="230.6" cy="89.1" r="0.9"></circle> <circle class="st36" cx="103.3" cy="92.7" r="1.7"></circle> <circle class="st36" cx="170.2" cy="96.5" r="1.4"></circle> <circle class="st36" cx="203" cy="117.8" r="0.8"></circle> <circle class="st36" cx="138.4" cy="120.8" r="1.8"></circle> <circle class="st6" cx="218.5" cy="56.1" r="1.7"></circle> <circle class="st36" cx="152.1" cy="40.5" r="1.5"></circle> <circle class="st6" cx="147.2" cy="39.6" r="1.7"></circle> <circle class="st6" cx="224.6" cy="69.5" r="1.2"></circle> <polygon class="st14" points="133.1,41.8 131.9,44.1 129.4,44.4 131.2,46.2 130.8,48.7 133.1,47.5 135.3,48.7 134.9,46.2 136.7,44.4 134.2,44.1 "></polygon> <circle class="st36" cx="120.5" cy="47.1" r="1.4"></circle> <circle class="st36" cx="127.1" cy="36.4" r="1.5"></circle> <circle class="st6" cx="132" cy="35.5" r="1.7"></circle> <circle class="st6" cx="125.9" cy="48.9" r="1.2"></circle> <circle class="st6" cx="202.1" cy="100.7" r="1.1"></circle> <circle class="st6" cx="175.4" cy="98.8" r="1.3"></circle> <circle class="st6" cx="111" cy="100.6" r="1.1"></circle> <circle class="st6" cx="232.3" cy="95.4" r="0.9"></circle> <path class="st6" d="M29,117.4L29,117.4c-1.9,0.7-4-0.4-4.7-2.3l-3.8-11c-0.7-1.9,0.4-4,2.3-4.7l0,0c1.9-0.7,4,0.4,4.7,2.3 l3.8,11C32,114.6,30.9,116.7,29,117.4z"></path> <g> <ellipse transform="matrix(0.123 -0.9924 0.9924 0.123 86.7968 218.9772)" class="st23" cx="167.3" cy="60.4" rx="18.7" ry="18.7"></ellipse> <path class="st37" d="M180.2,46.9c3.6,9.6,0,21.2-10.7,25.6c-5,2.1-11,2.2-16.2,0.4c2.9,3.3,7,5.6,11.7,6.2 c10.3,1.3,19.6-6,20.9-16.3C186.7,56.7,184.4,50.9,180.2,46.9z"></path> <ellipse transform="matrix(0.123 -0.9924 0.9924 0.123 89.0267 207.0524)" class="st38" cx="161.7" cy="53.2" rx="5" ry="5"></ellipse> <ellipse transform="matrix(0.123 -0.9924 0.9924 0.123 89.1962 206.1488)" class="st23" cx="161.2" cy="52.6" rx="4.1" ry="4.1"></ellipse> <ellipse transform="matrix(0.123 -0.9924 0.9924 0.123 89.8369 229.5309)" class="st38" cx="174.8" cy="63.9" rx="5" ry="5"></ellipse> <ellipse transform="matrix(0.123 -0.9924 0.9924 0.123 90.3583 228.7457)" class="st23" cx="174.6" cy="63.2" rx="3.8" ry="4.1"></ellipse> <ellipse transform="matrix(0.123 -0.9924 0.9924 0.123 72.582 220.5376)" class="st38" cx="161.1" cy="69.2" rx="2.8" ry="2.8"></ellipse> <ellipse transform="matrix(0.123 -0.9924 0.9924 0.123 72.7746 220.1689)" class="st23" cx="161" cy="68.9" rx="2.3" ry="2.3"></ellipse> <ellipse transform="matrix(0.123 -0.9924 0.9924 0.123 105.3347 221.4484)" class="st38" cx="178" cy="51.1" rx="1.8" ry="1.8"></ellipse> <ellipse transform="matrix(0.123 -0.9924 0.9924 0.123 105.4585 221.2076)" class="st23" cx="177.9" cy="50.9" rx="1.5" ry="1.5"></ellipse> <ellipse transform="matrix(0.123 -0.9924 0.9924 0.123 101.4926 208.8589)" class="st38" cx="168.9" cy="47" rx="0.5" ry="0.5"></ellipse> <ellipse transform="matrix(0.123 -0.9924 0.9924 0.123 99.294 216.5592)" class="st38" cx="172.2" cy="52.1" rx="0.9" ry="0.9"></ellipse> <ellipse transform="matrix(0.1229 -0.9924 0.9924 0.1229 73.4184 202.8074)" class="st38" cx="151.4" cy="59.9" rx="0.9" ry="0.9"></ellipse> <ellipse transform="matrix(0.123 -0.9924 0.9924 0.123 75.9129 209.1216)" class="st38" cx="156.3" cy="61.6" rx="0.3" ry="0.3"></ellipse> <ellipse transform="matrix(0.123 -0.9924 0.9924 0.123 76.5712 228.0892)" class="st38" cx="167.3" cy="70.7" rx="0.5" ry="0.5"></ellipse> <ellipse transform="matrix(0.1231 -0.9924 0.9924 0.1231 74.0187 232.4567)" class="st38" cx="168.5" cy="74.3" rx="0.3" ry="0.3"></ellipse> <ellipse transform="matrix(0.123 -0.9924 0.9924 0.123 68.8958 210.5682)" class="st38" cx="153.6" cy="66.3" rx="0.6" ry="0.6"></ellipse> <ellipse transform="matrix(0.123 -0.9924 0.9924 0.123 99.1142 235.6243)" class="st38" cx="182.9" cy="61.7" rx="0.4" ry="0.4"></ellipse> <ellipse transform="matrix(0.1229 -0.9924 0.9924 0.1229 98.814 225.3379)" class="st38" cx="176.9" cy="56.8" rx="0.3" ry="0.3"></ellipse> <ellipse transform="matrix(0.123 -0.9924 0.9924 0.123 107.5765 212.9803)" class="st38" cx="174.3" cy="45.6" rx="0.7" ry="0.7"></ellipse> <ellipse transform="matrix(0.1228 -0.9924 0.9924 0.1228 100.5658 201.3515)" class="st38" cx="164.2" cy="43.8" rx="0.1" ry="0.1"></ellipse> </g> <g> <g> <g> <path class="st39" d="M136,118.4c-0.1-0.2-0.1-0.4-0.1-0.6c-1-5.2,2.4-10.3,7.6-11.3c5.2-1,10.3,2.4,11.3,7.6 c0,0.2,0.1,0.4,0.1,0.7l3.6-0.7c0-0.2-0.1-0.4-0.1-0.7c-1.4-7.2-8.4-11.9-15.6-10.5c-7.2,1.4-11.9,8.4-10.5,15.6 c0,0.2,0.1,0.4,0.1,0.6L136,118.4z"></path> </g> <g> <path class="st40" d="M133.1,119c0-0.2-0.1-0.4-0.1-0.6c-1.3-6.9,3.2-13.6,10.1-14.9c6.9-1.3,13.6,3.2,14.9,10.1 c0,0.2,0.1,0.4,0.1,0.6l3.6-0.7c0-0.2-0.1-0.4-0.1-0.6c-1.7-8.9-10.3-14.7-19.2-13c-8.9,1.7-14.7,10.3-13,19.2 c0,0.2,0.1,0.4,0.1,0.6L133.1,119z"></path> </g> <g> <path class="st41" d="M129.8,119.6c0-0.1,0-0.2-0.1-0.3c-1.7-9,3.9-17.7,12.5-19.4c8.7-1.7,17.1,4.3,18.9,13.3 c0,0.1,0,0.2,0,0.3l3.6-0.7c0-0.1,0-0.2,0-0.3c-2.1-11-12.5-18.3-23.2-16.2c-10.6,2.1-17.6,12.7-15.4,23.7 c0,0.1,0,0.2,0.1,0.3L129.8,119.6z"></path> </g> <g> <path class="st42" d="M127.4,120.1c-0.1-0.3-0.1-0.5-0.2-0.8c-1.9-9.9,4.8-19.6,15-21.6s20,4.5,22,14.4 c0,0.3,0.1,0.5,0.1,0.8l3.6-0.7c0-0.3-0.1-0.5-0.1-0.8c-2.3-11.9-14.1-19.7-26.2-17.3c-12.2,2.4-20.2,14-17.9,25.9 c0,0.3,0.1,0.5,0.2,0.8L127.4,120.1z"></path> </g> </g> <g> <path class="st23" d="M143.1,120c0.2-1.3-0.2-2.6-1.3-3.6c-1.5-1.4-3.7-1.5-5.3-0.3c-1.3-1.5-3.2-2.5-5.3-2.4 c-2.3,0.1-4.2,1.3-5.4,3.1c-1.7-1.4-4.1-1.3-5.6,0.3c-0.8,0.9-1.2,2-1.1,3c-3.6,0.7-6.2,2.6-6.1,4.8 c0.1,2.7,4.1,4.7,9.1,4.5c0.5,0,1-0.1,1.5-0.1c0.1,0.2,0.3,0.4,0.5,0.6c1,0.9,2.5,1,3.5,0.1c0.1,0.1,0.1,0.1,0.2,0.2 c1.7,1.6,4.3,1.5,5.8-0.2c0.1-0.1,0.2-0.2,0.3-0.3c1.1,0.9,2.7,0.8,3.6-0.2c0.2-0.2,0.3-0.4,0.4-0.6c0.2,0,0.4,0,0.6,0 c4.9-0.2,8.8-2.4,8.7-5.1C147.1,122.2,145.5,120.8,143.1,120z"></path> <path class="st43" d="M143.1,120c0.2-1.2-0.2-2.4-1.1-3.4c0,1.1-0.2,2.2-0.7,3.2c0.4,2-0.2,4.3-1.8,5.7 c-1.6,1.4-3.9,2-6,1.6c-0.1,0-0.2-0.1-0.4-0.1c-1,0.8-2.3,1.3-3.9,1.4c-1.6,0-3.2-0.4-4.5-1.4c-1.2,0.1-2.4-0.1-3.5-0.7 c-2.1-1.2-3.5-3.4-3.7-5.8c-2.8,0.9-4.6,2.6-4.6,4.4c0.1,2.7,4.1,4.7,9.1,4.5c0.5,0,1-0.1,1.5-0.1c0.1,0.2,0.3,0.4,0.5,0.6 c1,0.9,2.5,1,3.5,0.1c0.1,0.1,0.1,0.1,0.2,0.2c1.7,1.6,4.3,1.5,5.8-0.2c0.1-0.1,0.2-0.2,0.3-0.3c1.1,0.9,2.7,0.8,3.6-0.2 c0.2-0.2,0.3-0.4,0.4-0.6c0.2,0,0.4,0,0.6,0c4.9-0.2,8.8-2.4,8.7-5.1C147.1,122.2,145.5,120.8,143.1,120z"></path> </g> <g> <path class="st23" d="M177.8,115.6c0.2-1.3-0.2-2.6-1.3-3.6c-1.5-1.4-3.7-1.5-5.3-0.3c-1.3-1.5-3.2-2.5-5.3-2.4 c-2.3,0.1-4.2,1.3-5.4,3.1c-1.7-1.4-4.1-1.3-5.6,0.3c-0.8,0.9-1.2,2-1.1,3c-3.6,0.7-6.2,2.6-6.1,4.8 c0.1,2.7,4.1,4.7,9.1,4.5c0.5,0,1-0.1,1.5-0.1c0.1,0.2,0.3,0.4,0.5,0.6c1,0.9,2.5,1,3.5,0.1c0.1,0.1,0.1,0.1,0.2,0.2 c1.7,1.6,4.3,1.5,5.8-0.2c0.1-0.1,0.2-0.2,0.3-0.3c1.1,0.9,2.7,0.8,3.6-0.2c0.2-0.2,0.3-0.4,0.4-0.6c0.2,0,0.4,0,0.6,0 c4.9-0.2,8.8-2.4,8.7-5.1C181.9,117.8,180.3,116.4,177.8,115.6z"></path> <path class="st43" d="M177.8,115.6c0.2-1.2-0.2-2.4-1.1-3.4c0,1.1-0.2,2.2-0.7,3.2c0.4,2-0.2,4.3-1.8,5.7 c-1.6,1.4-3.9,2-6,1.6c-0.1,0-0.2-0.1-0.4-0.1c-1,0.8-2.3,1.3-3.9,1.4c-1.6,0-3.2-0.4-4.5-1.4c-1.2,0.1-2.4-0.1-3.5-0.7 c-2.1-1.2-3.5-3.4-3.7-5.8c-2.8,0.9-4.6,2.6-4.6,4.4c0.1,2.7,4.1,4.7,9.1,4.5c0.5,0,1-0.1,1.5-0.1c0.1,0.2,0.3,0.4,0.5,0.6 c1,0.9,2.5,1,3.5,0.1c0.1,0.1,0.1,0.1,0.2,0.2c1.7,1.6,4.3,1.5,5.8-0.2c0.1-0.1,0.2-0.2,0.3-0.3c1.1,0.9,2.7,0.8,3.6-0.2 c0.2-0.2,0.3-0.4,0.4-0.6c0.2,0,0.4,0,0.6,0c4.9-0.2,8.8-2.4,8.7-5.1C181.9,117.8,180.3,116.4,177.8,115.6z"></path> </g> </g> <g> <g> <path class="st44" d="M190.1,106.8c0.1-0.3,0.6-0.4,1.2-0.2c2.3,0.9,6.3,2.9,11.9,6.6c5.6,3.7,9,6.7,10.7,8.4 c0.4,0.5,0.5,0.9,0.3,1.1l3,2c0,0,0,0,0-0.1c1.4-2.1-8-9.3-13.2-12.7c-5.2-3.5-15.4-9.5-16.8-7.3c0,0,0,0,0,0.1 L190.1,106.8z"></path> </g> <ellipse transform="matrix(0.5549 -0.8319 0.8319 0.5549 -5.2586 219.297)" class="st45" cx="202.3" cy="114.6" rx="10.8" ry="10.8"></ellipse> <path class="st46" d="M210,107c-1.5,1.6-0.5,4.3-1.3,6.4c-0.6,1.5-1.8,1.4-3.1,1.1c-1.2-0.3-4.8-0.9-4,1.2 c0.4,1.1,1.5,1.8,1.9,3c0.8,2.5-2.6,3-4.4,2.7c-2.5-0.4-5.1-1.6-6.9-3.4c0.7,2.1,2.1,4,4.2,5.4c4.9,3.3,11.6,2,14.9-3 C214.1,116.2,213.5,110.6,210,107z"></path> <g> <path class="st44" d="M217.2,123.8l-3.9-2.6c0.2,0.2,0.4,0.4,0.5,0.5c0.8,0.9,0.3,1.6-0.8,1.2c-2.2-0.9-6.3-2.9-11.9-6.6 c-5.6-3.7-9-6.7-10.7-8.4c-0.8-0.9-0.3-1.6,0.8-1.2c0.2,0.1,0.5,0.2,0.7,0.3l-3.9-2.6c-0.4,0-0.7,0.2-0.9,0.4 c-1.4,2.1,8,9.3,13.2,12.7c5.2,3.5,15.4,9.5,16.8,7.3C217.4,124.5,217.4,124.2,217.2,123.8z"></path> </g> </g> <polygon class="st14" points="215.4,133.6 216.2,135.2 218,135.5 216.7,136.8 217,138.5 215.4,137.7 213.8,138.5 214.1,136.8 212.8,135.5 214.6,135.2 "></polygon> </g> </g> </g> </g> </g> </g> </g> <g> </g> <g> </g> <g> </g> <g> </g> <g> </g> <g> </g> </svg> 